<svg xmlns="http://www.w3.org/2000/svg" xmlns:xlink="http://www.w3.org/1999/xlink" width="500" zoomAndPan="magnify" viewBox="0 0 375 374.999991" height="500" preserveAspectRatio="xMidYMid meet" version="1.0"><path fill="#010101" d="M 340.617188 217.675781 C 349.441406 170.273438 359.671875 123.132812 368.59375 75.761719 C 371.257812 61.476562 363.195312 43.207031 347.59375 40.933594 C 340.714844 39.027344 332.652344 46.367188 335.480469 53.378906 C 336.371094 59.269531 343.085938 59.933594 347.59375 61.445312 C 348.980469 65.265625 351.511719 69.214844 349.898438 73.460938 C 348.902344 78.542969 347.871094 83.625 346.867188 88.707031 L 117.164062 88.707031 C 112.621094 88.707031 108.933594 92.390625 108.933594 96.9375 C 108.933594 101.484375 112.621094 105.167969 117.164062 105.167969 L 343.59375 105.167969 C 337.453125 136 331.238281 166.828125 325.183594 197.695312 C 323.835938 204.113281 322.882812 210.730469 320.179688 216.789062 C 315.339844 218.664062 309.941406 217.710938 304.910156 217.972656 C 245.175781 217.808594 185.4375 217.941406 125.742188 217.90625 C 110.566406 153.1875 95.59375 88.4375 80.390625 23.71875 C 78.445312 11.503906 68.015625 0.25 55.046875 0.707031 C 39.546875 0.777344 24.007812 0.046875 8.542969 1.136719 C 0.0195312 4.0625 0.0195312 16.671875 8.378906 19.867188 C 24.703125 21.414062 41.191406 19.441406 57.515625 20.820312 C 61.429688 22.726562 60.707031 28.164062 62.222656 31.714844 C 80.058594 108.648438 98.058594 185.546875 116.226562 262.445312 C 118.566406 274.988281 130.507812 284.996094 143.480469 283.746094 C 207.261719 283.648438 271.042969 283.976562 334.789062 283.582031 C 346.964844 283.976562 347.03125 263.859375 334.855469 264.15625 C 277.65625 263.761719 220.425781 264.058594 163.226562 263.992188 C 154.632812 263.792969 145.914062 264.78125 137.425781 263.070312 C 133.640625 255.070312 132.621094 246.117188 130.351562 237.660156 C 191.832031 237.660156 253.304688 237.6875 314.785156 237.660156 C 326.730469 238.679688 338.839844 229.625 340.617188 217.675781 Z M 340.617188 217.675781 " fill-opacity="1" fill-rule="nonzero"/><path fill="#010101" d="M 150.523438 291.019531 C 139.265625 293.226562 129.917969 302.609375 127.746094 313.863281 C 124.058594 329.371094 135.117188 346.289062 150.851562 348.957031 C 167.140625 352.710938 184.617188 340.132812 186.003906 323.441406 C 189.09375 304.121094 169.480469 286.179688 150.523438 291.019531 Z M 164.804688 325.355469 C 161.648438 330.554688 153.613281 331.574219 149.632812 326.738281 C 144.167969 321.898438 147.160156 312.222656 153.972656 310.511719 C 162.074219 307.414062 170.53125 318.539062 164.804688 325.355469 Z M 164.804688 325.355469 " fill-opacity="1" fill-rule="nonzero"/><path fill="#010101" d="M 295.628906 290.953125 C 274.074219 294.246094 264.230469 323.445312 279.039062 339.28125 C 292.40625 356.203125 322.648438 350.964844 329.234375 330.292969 C 337.917969 309.714844 317.316406 285.488281 295.628906 290.953125 Z M 306.851562 328.117188 C 296.746094 335.984375 284.964844 318.042969 296.089844 311.792969 C 306.195312 303.890625 318.042969 321.863281 306.851562 328.117188 Z M 306.851562 328.117188 " fill-opacity="1" fill-rule="nonzero"/></svg>