<svg xmlns="http://www.w3.org/2000/svg" xmlns:xlink="http://www.w3.org/1999/xlink" width="250" zoomAndPan="magnify" viewBox="0 0 187.5 187.499992" height="250" preserveAspectRatio="xMidYMid meet" version="1.0"><defs><clipPath id="c021cde792"><path d="M 0 0 L 187 0 L 187 187 L 0 187 Z M 0 0 " clip-rule="nonzero"/></clipPath><clipPath id="a521b39be5"><path d="M 23.335938 23.976562 L 164.335938 23.976562 L 164.335938 163.476562 L 23.335938 163.476562 Z M 23.335938 23.976562 " clip-rule="nonzero"/></clipPath><clipPath id="9f0efe6181"><path d="M 50.242188 92 L 80 92 L 80 134.917969 L 50.242188 134.917969 Z M 50.242188 92 " clip-rule="nonzero"/></clipPath><clipPath id="015b4577a4"><path d="M 107 92 L 137.242188 92 L 137.242188 134.917969 L 107 134.917969 Z M 107 92 " clip-rule="nonzero"/></clipPath><clipPath id="515ad5b639"><path d="M 72 52.417969 L 122 52.417969 L 122 92 L 72 92 Z M 72 52.417969 " clip-rule="nonzero"/></clipPath></defs><g clip-path="url(#c021cde792)"><path fill="#ffffff" d="M 0 0 L 187.5 0 L 187.5 187.5 L 0 187.5 Z M 0 0 " fill-opacity="1" fill-rule="nonzero"/><path fill="#ff8400" d="M 0 0 L 187.5 0 L 187.5 187.5 L 0 187.5 Z M 0 0 " fill-opacity="1" fill-rule="nonzero"/></g><g clip-path="url(#a521b39be5)"><path fill="#ffffff" d="M 163.300781 24.941406 L 37.636719 24.941406 C 35.394531 24.941406 33.351562 25.855469 31.875 27.335938 C 31.644531 27.566406 31.425781 27.8125 31.21875 28.070312 C 31.632812 28.015625 32.0625 27.984375 32.492188 27.984375 L 159.109375 27.984375 L 159.109375 89.90625 C 159.789062 90.996094 161 91.71875 162.382812 91.71875 C 161 91.71875 159.792969 92.441406 159.109375 93.53125 L 159.109375 154.40625 C 159.109375 155.632812 158.863281 156.800781 158.417969 157.867188 C 159.347656 157.457031 160.191406 156.878906 160.902344 156.167969 C 162.382812 154.695312 163.296875 152.652344 163.296875 150.414062 L 163.296875 24.941406 Z M 37.640625 23.992188 L 164.253906 23.992188 L 164.253906 150.414062 C 164.253906 152.917969 163.230469 155.195312 161.582031 156.839844 C 160.535156 157.886719 159.238281 158.675781 157.792969 159.117188 C 157.414062 159.742188 156.957031 160.316406 156.441406 160.832031 C 154.792969 162.480469 152.515625 163.503906 150.007812 163.503906 L 23.386719 163.503906 L 23.386719 37.078125 C 23.386719 34.578125 24.410156 32.300781 26.0625 30.652344 C 27.109375 29.609375 28.40625 28.816406 29.855469 28.375 C 30.234375 27.75 30.691406 27.179688 31.203125 26.660156 C 32.855469 25.011719 35.132812 23.992188 37.640625 23.992188 Z M 28.53125 87.761719 C 27.871094 88.949219 26.605469 89.757812 25.148438 89.757812 C 26.601562 89.757812 27.871094 90.566406 28.53125 91.753906 L 28.53125 159.515625 L 155.144531 159.515625 C 155.578125 159.515625 156.003906 159.484375 156.417969 159.425781 C 156.214844 159.6875 156 159.929688 155.761719 160.164062 C 154.28125 161.640625 152.242188 162.558594 150.003906 162.558594 L 24.339844 162.558594 L 24.339844 37.078125 C 24.339844 34.839844 25.257812 32.800781 26.738281 31.328125 C 27.449219 30.617188 28.289062 30.035156 29.21875 29.625 C 28.777344 30.691406 28.53125 31.863281 28.53125 33.085938 Z M 29.484375 91.75 C 30.140625 90.5625 31.40625 89.753906 32.859375 89.753906 C 31.40625 89.753906 30.136719 88.949219 29.484375 87.757812 L 29.484375 33.085938 C 29.484375 31.675781 29.84375 30.34375 30.484375 29.183594 C 31.128906 29.019531 31.804688 28.929688 32.496094 28.929688 L 158.164062 28.929688 L 158.164062 89.511719 C 157.546875 90.8125 156.21875 91.714844 154.679688 91.714844 C 156.21875 91.714844 157.546875 92.613281 158.164062 93.914062 L 158.164062 154.402344 C 158.164062 155.8125 157.796875 157.144531 157.164062 158.304688 C 156.519531 158.472656 155.84375 158.5625 155.148438 158.5625 L 29.484375 158.5625 Z M 29.484375 91.75 " fill-opacity="1" fill-rule="evenodd"/></g><g clip-path="url(#9f0efe6181)"><path fill="#ffffff" d="M 70.84375 112.003906 L 70.234375 112.003906 C 73.265625 110.148438 75.316406 106.785156 75.316406 102.902344 C 75.316406 97.03125 70.679688 92.269531 64.957031 92.269531 C 59.234375 92.269531 54.59375 97.03125 54.59375 102.902344 C 54.59375 106.785156 56.648438 110.148438 59.675781 112.003906 L 59.066406 112.003906 C 54.183594 112.003906 50.230469 115.953125 50.230469 120.824219 L 50.230469 133.605469 C 54.96875 134.429688 59.835938 134.882812 64.808594 134.882812 C 69.886719 134.882812 74.847656 134.410156 79.679688 133.550781 L 79.679688 120.824219 C 79.679688 115.953125 75.730469 112.003906 70.84375 112.003906 " fill-opacity="1" fill-rule="nonzero"/></g><g clip-path="url(#015b4577a4)"><path fill="#ffffff" d="M 128.394531 112.003906 L 127.785156 112.003906 C 130.816406 110.148438 132.867188 106.785156 132.867188 102.902344 C 132.867188 97.03125 128.226562 92.269531 122.503906 92.269531 C 116.785156 92.269531 112.144531 97.03125 112.144531 102.902344 C 112.144531 106.785156 114.195312 110.148438 117.226562 112.003906 L 116.617188 112.003906 C 111.734375 112.003906 107.78125 115.953125 107.78125 120.824219 L 107.78125 133.605469 C 112.519531 134.429688 117.382812 134.882812 122.355469 134.882812 C 127.433594 134.882812 132.398438 134.410156 137.230469 133.550781 L 137.230469 120.824219 C 137.230469 115.953125 133.277344 112.003906 128.394531 112.003906 " fill-opacity="1" fill-rule="nonzero"/></g><path fill="#ffffff" d="M 90.925781 90.453125 C 83.808594 90.453125 78.039062 94.636719 78.039062 99.792969 C 78.039062 102.472656 79.605469 104.882812 82.097656 106.585938 L 80.816406 110.625 L 84.78125 108.007812 C 86.609375 108.726562 88.699219 109.132812 90.925781 109.132812 C 98.039062 109.132812 103.808594 104.953125 103.808594 99.792969 C 103.808594 94.636719 98.039062 90.453125 90.925781 90.453125 " fill-opacity="1" fill-rule="nonzero"/><g clip-path="url(#515ad5b639)"><path fill="#ffffff" d="M 96.875 55.476562 C 108.890625 55.476562 118.660156 62.375 118.660156 70.855469 C 118.660156 75.027344 116.292969 78.945312 111.988281 81.886719 C 111.433594 82.265625 111.191406 82.964844 111.394531 83.601562 L 112.410156 86.804688 L 108.832031 84.445312 C 108.582031 84.277344 108.289062 84.191406 107.992188 84.191406 C 107.800781 84.191406 107.613281 84.226562 107.429688 84.300781 C 104.21875 85.5625 100.566406 86.234375 96.875 86.234375 C 84.863281 86.234375 75.089844 79.335938 75.089844 70.855469 C 75.089844 62.375 84.863281 55.476562 96.875 55.476562 Z M 96.875 89.28125 C 100.664062 89.28125 104.421875 88.636719 107.800781 87.417969 L 114.328125 91.722656 C 114.582031 91.890625 114.875 91.976562 115.167969 91.976562 C 115.492188 91.976562 115.816406 91.871094 116.089844 91.667969 C 116.605469 91.28125 116.820312 90.609375 116.625 89.992188 L 114.636719 83.734375 C 119.148438 80.308594 121.714844 75.667969 121.714844 70.855469 C 121.714844 60.695312 110.570312 52.429688 96.875 52.429688 C 83.179688 52.429688 72.039062 60.695312 72.039062 70.855469 C 72.039062 81.015625 83.179688 89.28125 96.875 89.28125 " fill-opacity="1" fill-rule="nonzero"/></g><path fill="#ffffff" d="M 83.507812 67.761719 L 110.433594 67.761719 C 111.277344 67.761719 111.957031 67.078125 111.957031 66.238281 C 111.957031 65.398438 111.277344 64.714844 110.433594 64.714844 L 83.507812 64.714844 C 82.664062 64.714844 81.980469 65.398438 81.980469 66.238281 C 81.980469 67.078125 82.664062 67.761719 83.507812 67.761719 " fill-opacity="1" fill-rule="nonzero"/><path fill="#ffffff" d="M 83.507812 76.1875 L 110.433594 76.1875 C 111.277344 76.1875 111.957031 75.503906 111.957031 74.664062 C 111.957031 73.820312 111.277344 73.140625 110.433594 73.140625 L 83.507812 73.140625 C 82.664062 73.140625 81.980469 73.820312 81.980469 74.664062 C 81.980469 75.503906 82.664062 76.1875 83.507812 76.1875 " fill-opacity="1" fill-rule="nonzero"/></svg>