<svg xmlns="http://www.w3.org/2000/svg" xmlns:xlink="http://www.w3.org/1999/xlink" width="250" zoomAndPan="magnify" viewBox="0 0 187.5 187.499992" height="250" preserveAspectRatio="xMidYMid meet" version="1.0"><defs><clipPath id="e7a44eb1bb"><path d="M 0 0 L 187 0 L 187 187 L 0 187 Z M 0 0 " clip-rule="nonzero"/></clipPath><clipPath id="a73f194f48"><path d="M 23.335938 23.976562 L 164.335938 23.976562 L 164.335938 163.476562 L 23.335938 163.476562 Z M 23.335938 23.976562 " clip-rule="nonzero"/></clipPath><clipPath id="64606117f6"><path d="M 52.355469 48.898438 L 134.855469 48.898438 L 134.855469 138.898438 L 52.355469 138.898438 Z M 52.355469 48.898438 " clip-rule="nonzero"/></clipPath></defs><g clip-path="url(#e7a44eb1bb)"><path fill="#ffffff" d="M 0 0 L 187.5 0 L 187.5 187.5 L 0 187.5 Z M 0 0 " fill-opacity="1" fill-rule="nonzero"/><path fill="#ff8400" d="M 0 0 L 187.5 0 L 187.5 187.5 L 0 187.5 Z M 0 0 " fill-opacity="1" fill-rule="nonzero"/></g><g clip-path="url(#a73f194f48)"><path fill="#ffffff" d="M 163.300781 24.941406 L 37.636719 24.941406 C 35.394531 24.941406 33.351562 25.855469 31.875 27.335938 C 31.644531 27.566406 31.425781 27.8125 31.21875 28.070312 C 31.632812 28.015625 32.0625 27.984375 32.492188 27.984375 L 159.109375 27.984375 L 159.109375 89.90625 C 159.789062 90.996094 161 91.71875 162.382812 91.71875 C 161 91.71875 159.792969 92.441406 159.109375 93.53125 L 159.109375 154.40625 C 159.109375 155.632812 158.863281 156.800781 158.417969 157.867188 C 159.347656 157.457031 160.191406 156.878906 160.902344 156.167969 C 162.382812 154.695312 163.296875 152.652344 163.296875 150.414062 L 163.296875 24.941406 Z M 37.640625 23.992188 L 164.253906 23.992188 L 164.253906 150.414062 C 164.253906 152.917969 163.230469 155.195312 161.582031 156.839844 C 160.535156 157.886719 159.238281 158.675781 157.792969 159.117188 C 157.414062 159.742188 156.957031 160.316406 156.441406 160.832031 C 154.792969 162.480469 152.515625 163.503906 150.007812 163.503906 L 23.386719 163.503906 L 23.386719 37.078125 C 23.386719 34.578125 24.410156 32.300781 26.0625 30.652344 C 27.109375 29.609375 28.40625 28.816406 29.855469 28.375 C 30.234375 27.75 30.691406 27.179688 31.203125 26.660156 C 32.855469 25.011719 35.132812 23.992188 37.640625 23.992188 Z M 28.53125 87.761719 C 27.871094 88.949219 26.605469 89.757812 25.148438 89.757812 C 26.601562 89.757812 27.871094 90.566406 28.53125 91.753906 L 28.53125 159.515625 L 155.144531 159.515625 C 155.578125 159.515625 156.003906 159.484375 156.417969 159.425781 C 156.214844 159.6875 156 159.929688 155.761719 160.164062 C 154.28125 161.640625 152.242188 162.558594 150.003906 162.558594 L 24.339844 162.558594 L 24.339844 37.078125 C 24.339844 34.839844 25.257812 32.800781 26.738281 31.328125 C 27.449219 30.617188 28.289062 30.035156 29.21875 29.625 C 28.777344 30.691406 28.53125 31.863281 28.53125 33.085938 Z M 29.484375 91.75 C 30.140625 90.5625 31.40625 89.753906 32.859375 89.753906 C 31.40625 89.753906 30.136719 88.949219 29.484375 87.757812 L 29.484375 33.085938 C 29.484375 31.675781 29.84375 30.34375 30.484375 29.183594 C 31.128906 29.019531 31.804688 28.929688 32.496094 28.929688 L 158.164062 28.929688 L 158.164062 89.511719 C 157.546875 90.8125 156.21875 91.714844 154.679688 91.714844 C 156.21875 91.714844 157.546875 92.613281 158.164062 93.914062 L 158.164062 154.402344 C 158.164062 155.8125 157.796875 157.144531 157.164062 158.304688 C 156.519531 158.472656 155.84375 158.5625 155.148438 158.5625 L 29.484375 158.5625 Z M 29.484375 91.75 " fill-opacity="1" fill-rule="evenodd"/></g><g clip-path="url(#64606117f6)"><path fill="#ffffff" d="M 67.035156 112.699219 C 69.070312 114.050781 71.25 115.167969 73.359375 116.394531 C 74.066406 116.808594 74.308594 117.71875 73.898438 118.433594 C 73.488281 119.148438 72.582031 119.390625 71.875 118.976562 C 71.09375 118.523438 70.425781 118.152344 69.769531 117.785156 C 67.339844 116.425781 63.71875 114.515625 62.089844 112.210938 C 61.511719 111.394531 61.082031 110.480469 60.8125 109.449219 L 57.605469 97.203125 C 56.835938 94.273438 55.800781 92.988281 54.828125 92.667969 C 54.5625 92.578125 54.296875 92.574219 54.050781 92.632812 C 53.773438 92.699219 53.511719 92.835938 53.285156 93.023438 C 52.730469 93.476562 52.390625 94.148438 52.519531 94.699219 L 57.878906 117.386719 C 58.285156 119.09375 59.234375 120.324219 60.734375 121.199219 L 73.5 128.617188 C 73.558594 128.648438 73.617188 128.683594 73.671875 128.722656 L 83.53125 125.96875 L 82.007812 120.222656 C 80.996094 116.394531 80.199219 116.023438 76.863281 114.449219 C 74.445312 113.308594 71.371094 111.855469 68.640625 109.960938 C 67.875 109.609375 66.914062 109.773438 66.476562 110.542969 C 65.980469 111.410156 66.3125 112.109375 67.035156 112.699219 Z M 111.414062 68.566406 C 102.59375 68.566406 95.441406 75.765625 95.441406 84.648438 C 95.441406 93.53125 102.59375 100.734375 111.414062 100.734375 C 120.238281 100.734375 127.390625 93.53125 127.390625 84.648438 C 127.390625 75.765625 120.238281 68.566406 111.414062 68.566406 Z M 111.414062 98.425781 C 103.859375 98.425781 97.730469 92.257812 97.730469 84.648438 C 97.730469 77.042969 103.859375 70.871094 111.414062 70.871094 C 118.972656 70.871094 125.101562 77.042969 125.101562 84.648438 C 125.101562 92.257812 118.972656 98.425781 111.414062 98.425781 Z M 111.414062 73.863281 C 105.5 73.863281 100.703125 78.691406 100.703125 84.648438 C 100.703125 90.605469 105.5 95.433594 111.414062 95.433594 C 117.332031 95.433594 122.128906 90.605469 122.128906 84.648438 C 122.128906 78.691406 117.332031 73.863281 111.414062 73.863281 Z M 112.902344 92.027344 L 112.902344 92.421875 C 112.902344 93.246094 112.238281 93.917969 111.414062 93.917969 C 110.59375 93.917969 109.929688 93.246094 109.929688 92.421875 L 109.929688 91.996094 C 108.046875 91.542969 106.542969 90.246094 106.0625 88.308594 C 105.867188 87.511719 106.355469 86.703125 107.148438 86.503906 C 107.945312 86.308594 108.746094 86.796875 108.941406 87.597656 C 109.230469 88.757812 110.457031 89.21875 111.539062 89.195312 C 111.644531 89.191406 111.78125 89.179688 111.949219 89.160156 C 112.640625 89.074219 113.871094 88.738281 113.847656 87.84375 C 113.847656 87.828125 113.84375 87.78125 113.832031 87.699219 C 113.695312 86.546875 112.117188 86.230469 111.1875 86.078125 C 108.832031 85.6875 106.558594 84.539062 106.429688 81.832031 C 106.320312 79.578125 107.859375 77.894531 109.929688 77.328125 L 109.929688 76.878906 C 109.929688 76.050781 110.59375 75.382812 111.414062 75.382812 C 112.238281 75.382812 112.902344 76.050781 112.902344 76.878906 L 112.902344 77.308594 C 114.359375 77.695312 115.679688 78.667969 116.375 80.339844 C 116.695312 81.101562 116.339844 81.980469 115.582031 82.296875 C 114.824219 82.617188 113.953125 82.257812 113.636719 81.496094 C 113.171875 80.382812 112.007812 79.933594 110.882812 80.160156 C 110.117188 80.316406 109.347656 80.8125 109.390625 81.691406 C 109.4375 82.707031 110.878906 83.003906 111.664062 83.132812 C 114.09375 83.535156 116.449219 84.585938 116.78125 87.351562 C 116.796875 87.460938 116.804688 87.605469 116.808594 87.773438 C 116.863281 90.140625 115.023438 91.574219 112.902344 92.027344 Z M 111.886719 49.191406 C 114.734375 52.566406 117.578125 55.941406 120.425781 59.316406 C 120.769531 59.722656 120.480469 60.34375 119.953125 60.34375 C 118.628906 60.34375 117.300781 60.34375 115.976562 60.34375 L 115.976562 66.132812 C 114.515625 65.769531 112.988281 65.574219 111.414062 65.574219 C 109.84375 65.574219 108.316406 65.769531 106.855469 66.132812 L 106.855469 60.34375 C 105.53125 60.34375 104.203125 60.34375 102.878906 60.34375 C 102.351562 60.34375 102.0625 59.71875 102.40625 59.316406 C 105.253906 55.941406 108.097656 52.566406 110.941406 49.191406 C 111.191406 48.898438 111.640625 48.898438 111.886719 49.191406 Z M 75.792969 61.714844 C 69.875 61.714844 65.082031 66.542969 65.082031 72.5 C 65.082031 78.457031 69.875 83.285156 75.792969 83.285156 C 81.710938 83.285156 86.503906 78.457031 86.503906 72.5 C 86.503906 66.542969 81.710938 61.714844 75.792969 61.714844 Z M 77.277344 79.878906 L 77.277344 80.273438 C 77.277344 81.097656 76.613281 81.769531 75.792969 81.769531 C 74.972656 81.769531 74.308594 81.097656 74.308594 80.273438 L 74.308594 79.847656 C 72.425781 79.390625 70.921875 78.097656 70.441406 76.160156 C 70.246094 75.359375 70.730469 74.550781 71.527344 74.355469 C 72.320312 74.160156 73.125 74.648438 73.320312 75.449219 C 73.605469 76.609375 74.835938 77.070312 75.917969 77.046875 C 76.023438 77.042969 76.15625 77.03125 76.324219 77.011719 C 77.019531 76.925781 78.246094 76.589844 78.226562 75.695312 C 78.226562 75.679688 78.21875 75.632812 78.210938 75.550781 C 78.070312 74.398438 76.496094 74.082031 75.566406 73.929688 C 73.207031 73.539062 70.9375 72.390625 70.804688 69.683594 C 70.699219 67.429688 72.238281 65.746094 74.308594 65.179688 L 74.308594 64.730469 C 74.308594 63.902344 74.972656 63.234375 75.792969 63.234375 C 76.613281 63.234375 77.277344 63.902344 77.277344 64.730469 L 77.277344 65.160156 C 78.734375 65.546875 80.054688 66.519531 80.753906 68.191406 C 81.070312 68.953125 80.714844 69.832031 79.957031 70.148438 C 79.203125 70.46875 78.332031 70.109375 78.015625 69.347656 C 77.550781 68.234375 76.386719 67.785156 75.257812 68.011719 C 74.496094 68.167969 73.722656 68.664062 73.765625 69.542969 C 73.816406 70.558594 75.253906 70.855469 76.042969 70.984375 C 78.472656 71.386719 80.824219 72.4375 81.160156 75.203125 C 81.171875 75.316406 81.179688 75.457031 81.183594 75.625 C 81.242188 77.992188 79.398438 79.425781 77.277344 79.878906 Z M 75.792969 56.417969 C 66.96875 56.417969 59.816406 63.617188 59.816406 72.5 C 59.816406 81.382812 66.96875 88.585938 75.792969 88.585938 C 84.613281 88.585938 91.765625 81.382812 91.765625 72.5 C 91.765625 63.617188 84.613281 56.417969 75.792969 56.417969 Z M 75.792969 86.277344 C 68.234375 86.277344 62.109375 80.109375 62.109375 72.5 C 62.109375 64.890625 68.234375 58.722656 75.792969 58.722656 C 83.351562 58.722656 89.476562 64.890625 89.476562 72.5 C 89.476562 80.109375 83.351562 86.277344 75.792969 86.277344 Z M 76.265625 107.960938 C 76.019531 108.253906 75.566406 108.253906 75.320312 107.960938 C 72.472656 104.585938 69.628906 101.210938 66.785156 97.835938 C 66.441406 97.429688 66.726562 96.808594 67.257812 96.808594 C 68.582031 96.808594 69.90625 96.808594 71.230469 96.808594 L 71.230469 91.019531 C 72.691406 91.382812 74.21875 91.578125 75.792969 91.578125 C 77.367188 91.578125 78.890625 91.382812 80.351562 91.019531 L 80.351562 96.808594 C 81.679688 96.808594 83.003906 96.808594 84.328125 96.808594 C 84.859375 96.808594 85.144531 97.429688 84.800781 97.835938 C 81.957031 101.210938 79.109375 104.585938 76.265625 107.960938 Z M 116.375 132.617188 L 100.046875 128.0625 C 99.257812 127.84375 98.433594 128.3125 98.214844 129.105469 L 97.34375 132.273438 C 97.125 133.066406 97.589844 133.898438 98.382812 134.117188 L 114.707031 138.675781 C 115.5 138.894531 116.324219 138.425781 116.542969 137.628906 L 117.414062 134.464844 C 117.632812 133.667969 117.164062 132.839844 116.375 132.617188 Z M 101.882812 132.21875 C 101.550781 132.667969 100.914062 132.761719 100.464844 132.425781 C 100.015625 132.089844 99.921875 131.449219 100.257812 131 C 100.59375 130.546875 101.226562 130.453125 101.675781 130.789062 C 102.125 131.125 102.21875 131.765625 101.882812 132.21875 Z M 89.863281 132.273438 L 88.992188 129.105469 C 88.773438 128.3125 87.949219 127.84375 87.160156 128.0625 L 70.832031 132.617188 C 70.042969 132.839844 69.574219 133.671875 69.792969 134.464844 L 70.667969 137.628906 C 70.882812 138.425781 71.710938 138.894531 72.5 138.675781 L 88.828125 134.117188 C 89.617188 133.898438 90.082031 133.066406 89.863281 132.273438 Z M 86.742188 132.425781 C 86.292969 132.761719 85.660156 132.667969 85.324219 132.21875 C 84.992188 131.765625 85.082031 131.125 85.53125 130.789062 C 85.980469 130.453125 86.617188 130.546875 86.949219 131 C 87.285156 131.449219 87.191406 132.089844 86.742188 132.425781 Z M 117.4375 117.785156 C 116.78125 118.152344 116.117188 118.523438 115.335938 118.976562 C 114.625 119.390625 113.71875 119.148438 113.308594 118.433594 C 112.898438 117.71875 113.140625 116.808594 113.847656 116.394531 C 115.960938 115.167969 118.136719 114.050781 120.175781 112.699219 C 120.894531 112.109375 121.230469 111.414062 120.730469 110.546875 C 120.289062 109.777344 119.335938 109.609375 118.570312 109.960938 C 115.835938 111.855469 112.761719 113.308594 110.34375 114.449219 C 107.011719 116.023438 106.210938 116.394531 105.199219 120.222656 L 103.675781 125.96875 L 113.539062 128.722656 C 113.589844 128.683594 113.648438 128.648438 113.707031 128.617188 L 126.472656 121.199219 C 127.972656 120.324219 128.925781 119.09375 129.328125 117.386719 L 134.6875 94.699219 C 134.816406 94.148438 134.476562 93.476562 133.921875 93.023438 C 133.695312 92.839844 133.4375 92.699219 133.160156 92.636719 C 132.910156 92.578125 132.644531 92.582031 132.378906 92.667969 C 131.410156 92.988281 130.371094 94.273438 129.605469 97.203125 L 126.394531 109.449219 C 126.125 110.480469 125.695312 111.394531 125.121094 112.210938 C 123.476562 114.535156 119.753906 116.488281 117.4375 117.785156 Z M 117.4375 117.785156 " fill-opacity="1" fill-rule="evenodd"/></g></svg>