<svg width="23" height="23" viewBox="0 0 23 23" fill="none" xmlns="http://www.w3.org/2000/svg">
<path d="M0 0V3.28571H3.28571V0H0ZM6.57143 0V3.28571H9.85714V0H6.57143ZM13.1429 0V3.28571H16.4286V0H13.1429ZM19.7143 0V3.28571H23V0H19.7143ZM0 6.57143V9.85714H3.28571V6.57143H0ZM6.57143 6.57143V9.85714H9.85714V6.57143H6.57143ZM13.1429 6.57143V9.85714H16.4286V6.57143H13.1429ZM19.7143 6.57143V9.85714H23V6.57143H19.7143ZM0 13.1429V16.4286H3.28571V13.1429H0ZM6.57143 13.1429V16.4286H9.85714V13.1429H6.57143ZM13.1429 13.1429V16.4286H16.4286V13.1429H13.1429ZM19.7143 13.1429V16.4286H23V13.1429H19.7143ZM0 19.7143V23H3.28571V19.7143H0ZM6.57143 19.7143V23H9.85714V19.7143H6.57143ZM13.1429 19.7143V23H16.4286V19.7143H13.1429ZM19.7143 19.7143V23H23V19.7143H19.7143Z" fill="#FF8400"/>
</svg>
