<svg width="26" height="26" viewBox="0 0 26 26" fill="none" xmlns="http://www.w3.org/2000/svg">
<path d="M1 10.3333V1.8C1 1.35817 1.30946 1 1.6912 1H8.80831C8.9733 1 9.13286 1.06832 9.25814 1.1926L12.9019 4.8074C13.0271 4.93168 13.1867 5 13.3517 5H23.3488C23.7306 5 24.04 5.35817 24.04 5.8V9M1 10.3333V21.5333C1 21.9752 1.30946 22.3333 1.6912 22.3333H10.216M1 10.3333H10.216" stroke="#FF8400" stroke-width="2" stroke-linecap="round" stroke-linejoin="round"/>
<path d="M24.0393 13.8V24.2C24.0393 24.6419 23.7298 25 23.3481 25H14.3625C13.9807 25 13.6713 24.6419 13.6713 24.2V13.8C13.6713 13.3581 13.9807 13 14.3625 13H23.3481C23.7298 13 24.0393 13.3581 24.0393 13.8Z" stroke="#FF8400" stroke-width="2" stroke-linecap="round" stroke-linejoin="round"/>
<path d="M21.1602 16.3474L21.1722 16.332" stroke="#FF8400" stroke-width="2" stroke-linecap="round" stroke-linejoin="round"/>
<path d="M13.6713 21.268L17.7033 19.668L24.0393 22.3346" stroke="#FF8400" stroke-width="2" stroke-linecap="round" stroke-linejoin="round"/>
</svg>
