<?xml version="1.0" encoding="utf-8"?>
<!-- Generator: Adobe Illustrator 16.0.0, SVG Export Plug-In . SVG Version: 6.00 Build 0)  -->
<!DOCTYPE svg PUBLIC "-//W3C//DTD SVG 1.1//EN" "http://www.w3.org/Graphics/SVG/1.1/DTD/svg11.dtd">
<svg version="1.1" id="Layer_1" xmlns="http://www.w3.org/2000/svg" xmlns:xlink="http://www.w3.org/1999/xlink" x="0px" y="0px"
	 width="5616px" height="1504px" viewBox="0 0 5616 1504" enable-background="new 0 0 5616 1504" xml:space="preserve">
<g>
	<g>
		<path fill="#5F6060" d="M2400.929,574.307c0,6.736-1.287,12.987-3.849,18.759c-2.568,5.772-6.159,10.767-10.778,14.972
			c-4.619,4.21-10.008,7.52-16.167,9.921c-6.158,2.407-12.702,3.607-19.63,3.607h-225.561c-21.303,0-42.858-2.165-64.666-6.494
			c-21.814-4.329-42.918-11.003-63.319-20.022c-20.4-9.019-39.586-20.501-57.545-34.453c-17.965-13.946-33.68-30.484-47.152-49.604
			s-24.057-41.002-31.755-65.658c-7.698-24.65-11.547-52.13-11.547-82.434V104.237h100.078v258.665
			c0,26.459,3.909,48.827,11.74,67.101c7.825,18.281,17.766,33.551,29.831,45.816c12.059,12.266,25.272,21.888,39.646,28.861
			c14.368,6.979,28.033,12.147,40.993,15.513c12.955,3.371,24.376,5.474,34.258,6.313c9.875,0.845,16.359,1.263,19.438,1.263
			h175.907V104.237h100.078V574.307z"/>
		<path fill="#5F6060" d="M2967.141,621.566h-100.078V405.111c0-12.266-2.249-23.269-6.735-33.01
			c-4.493-9.74-10.586-18.094-18.284-25.073c-7.698-6.973-16.744-12.322-27.137-16.054c-10.393-3.726-21.621-5.592-33.68-5.592
			H2606.09v296.184h-100.078V278.124c0-6.494,1.281-12.565,3.849-18.219c2.562-5.648,6.159-10.58,10.777-14.791
			c4.619-4.205,10.008-7.514,16.167-9.921c6.159-2.401,12.702-3.607,19.631-3.607h225.561c12.57,0,25.85,1.325,39.839,3.968
			c13.983,2.649,27.841,6.917,41.571,12.807c13.725,5.896,26.812,13.348,39.261,22.367c12.444,9.019,23.48,19.966,33.104,32.829
			c9.623,12.869,17.255,27.722,22.902,44.554c5.642,16.837,8.468,35.839,8.468,57V621.566z"/>
		<path fill="#5F6060" d="M3513.721,489.889c0,8.901-1.095,18.28-3.271,28.139c-2.184,9.865-5.581,19.662-10.2,29.402
			c-4.619,9.741-10.585,19.064-17.898,27.959c-7.313,8.901-16.167,16.775-26.56,23.63s-22.392,12.328-35.989,16.415
			c-13.604,4.092-29.001,6.133-46.19,6.133h-180.525c-9.496,0-19.504-1.021-30.023-3.066c-10.525-2.041-20.978-5.231-31.371-9.56
			c-10.393-4.329-20.34-9.921-29.83-16.775c-9.497-6.854-17.899-15.152-25.213-24.893c-7.313-9.74-13.152-21.042-17.514-33.911
			c-4.366-12.863-6.543-27.356-6.543-43.472V66.718h100.078v423.171c0,11.544,3.849,20.744,11.548,27.598
			c7.698,6.854,17.32,10.282,28.868,10.282h180.525c12.57,0,22.386-3.484,29.446-10.462c7.055-6.973,10.585-16.11,10.585-27.418
			V362.902c0-11.781-3.723-20.98-11.162-27.598c-7.446-6.612-17.068-9.921-28.869-9.921h-180.525v-93.797h180.525
			c9.491,0,19.499,1.026,30.023,3.066c10.52,2.046,20.979,5.231,31.371,9.56s20.334,9.921,29.831,16.775
			c9.49,6.854,17.832,15.152,25.02,24.893c7.181,9.74,12.954,20.986,17.321,33.731c4.36,12.75,6.543,27.181,6.543,43.291V489.889z"
			/>
		<path fill="#5F6060" d="M4051.834,489.889c0,16.116-2.184,30.608-6.544,43.472c-4.366,12.869-10.14,24.171-17.321,33.911
			c-7.187,9.741-15.528,18.038-25.02,24.893c-9.496,6.854-19.438,12.446-29.831,16.775c-10.393,4.329-20.917,7.52-31.563,9.56
			c-10.651,2.046-20.726,3.066-30.216,3.066h-180.526c-13.856,0-29.001-2.283-45.42-6.854
			c-16.425-4.566-31.629-12.085-45.612-22.547c-13.989-10.462-25.663-24.047-35.027-40.766c-9.37-16.713-14.05-37.214-14.05-61.509
			V362.902c0-24.047,4.68-44.43,14.05-61.149c9.364-16.713,21.038-30.304,35.027-40.766c13.983-10.462,29.188-17.976,45.612-22.547
			c16.419-4.566,31.563-6.854,45.42-6.854h180.526c25.656,0,47.471,4.329,65.436,12.987c17.959,8.658,32.459,19.543,43.495,32.649
			c11.03,13.111,19.054,27.361,24.058,42.75c5.004,15.394,7.506,29.706,7.506,42.93V489.889z M3951.756,363.624
			c0-12.987-3.465-22.604-10.393-28.861c-6.929-6.251-16.937-9.38-30.023-9.38h-179.756c-13.346,0-23.48,3.19-30.408,9.56
			c-6.929,6.375-10.394,15.693-10.394,27.959v126.987c0,12.266,3.465,21.646,10.394,28.139c6.928,6.494,17.063,9.741,30.408,9.741
			h179.756c13.598,0,23.732-3.247,30.408-9.741c6.67-6.494,10.008-15.874,10.008-28.139V363.624z"/>
		<path fill="#5F6060" d="M4598.415,231.585l-179.756,183.987l202.466,205.994h-137.8L4350.145,485.56l-133.182,136.006h-138.185
			l202.081-206.715l-178.986-183.266h137.03l110.471,112.917l111.241-112.917H4598.415z"/>
		<path fill="#5F6060" d="M1960.97,1313.242h-100.078V795.913h100.078V1313.242z"/>
		<path fill="#5F6060" d="M2527.951,1313.242h-100.078v-216.456c0-12.266-2.249-23.269-6.736-33.009
			c-4.493-9.741-10.585-18.095-18.284-25.073c-7.698-6.973-16.744-12.322-27.136-16.054c-10.393-3.726-21.622-5.592-33.68-5.592
			H2166.9v296.184h-100.078V969.799c0-6.493,1.281-12.564,3.849-18.218c2.562-5.648,6.159-10.581,10.777-14.791
			c4.619-4.205,10.008-7.515,16.167-9.921c6.159-2.401,12.702-3.608,19.631-3.608h225.561c12.57,0,25.85,1.325,39.839,3.969
			c13.983,2.649,27.84,6.916,41.571,12.807c13.725,5.896,26.812,13.349,39.261,22.367c12.443,9.02,23.48,19.966,33.103,32.829
			c9.623,12.869,17.255,27.723,22.903,44.554c5.641,16.838,8.468,35.84,8.468,57V1313.242z"/>
		<path fill="#5F6060" d="M3072.223,1181.565c0,16.115-2.184,30.607-6.543,43.471c-4.367,12.869-10.141,24.171-17.322,33.912
			c-7.188,9.74-15.529,18.038-25.02,24.892c-9.496,6.854-19.438,12.446-29.83,16.775s-20.918,7.52-31.564,9.561
			c-10.65,2.046-20.725,3.066-30.215,3.066h-180.526c-17.195,0-32.592-2.041-46.19-6.133c-13.604-4.087-25.597-9.561-35.99-16.415
			c-10.393-6.854-19.246-14.729-26.559-23.629c-7.313-8.896-13.28-18.219-17.898-27.959c-4.619-9.741-8.023-19.6-10.201-29.583
			c-2.183-9.977-3.271-19.3-3.271-27.958v-126.988c0-24.047,4.679-44.43,14.049-61.148c9.364-16.713,21.038-30.304,35.027-40.766
			c13.983-10.462,29.188-17.976,45.613-22.548c16.419-4.565,31.563-6.854,45.42-6.854h180.526v93.798h-179.756
			c-13.346,0-23.48,3.19-30.409,9.561c-6.928,6.375-10.393,15.692-10.393,27.958v126.267c0,12.75,3.398,22.367,10.2,28.86
			c6.796,6.494,16.744,9.74,29.831,9.74h180.526c13.598,0,23.732-3.246,30.408-9.74c6.67-6.493,10.008-15.873,10.008-28.139V758.394
			h100.078V1181.565z"/>
		<path fill="#5F6060" d="M3622.653,1265.982c0,6.736-1.287,12.987-3.85,18.76c-2.568,5.772-6.099,10.767-10.585,14.972
			c-4.493,4.211-9.755,7.52-15.781,9.921c-6.032,2.407-12.51,3.607-19.438,3.607h-226.331c-12.317,0-25.471-1.319-39.453-3.969
			c-13.989-2.644-27.78-6.91-41.379-12.807c-13.604-5.891-26.752-13.348-39.454-22.367c-12.702-9.019-23.805-19.96-33.295-32.829
			c-9.497-12.863-17.129-27.717-22.902-44.554c-5.774-16.832-8.661-35.834-8.661-57V923.261h100.078v216.456
			c0,12.266,2.244,23.27,6.736,33.01c4.486,9.74,10.585,18.1,18.283,25.072c7.698,6.979,16.744,12.328,27.137,16.054
			c10.393,3.732,21.615,5.592,33.681,5.592h175.137V923.261h100.078V1265.982z"/>
		<path fill="#5F6060" d="M4118.81,1181.565c0,16.115-2.184,30.607-6.544,43.471c-4.366,12.869-10.14,24.171-17.321,33.912
			c-7.187,9.74-15.529,18.038-25.02,24.892c-9.496,6.854-19.438,12.446-29.831,16.775s-20.918,7.52-31.563,9.561
			c-10.651,2.046-20.726,3.066-30.217,3.066h-270.98v-93.798h270.211c13.599,0,23.865-3.246,30.794-9.74
			c6.928-6.493,10.393-15.873,10.393-28.139c-1.287-25.012-14.76-37.52-40.417-37.52h-155.121c-22.072,0-40.801-3.607-56.197-10.822
			c-15.396-7.216-27.906-16.234-37.529-27.058c-9.623-10.822-16.552-22.485-20.785-34.993c-4.234-12.503-6.352-24.171-6.352-34.994
			c0-20.924,3.976-38.539,11.933-52.852c7.951-14.306,17.959-25.912,30.023-34.813c12.059-8.896,25.146-15.333,39.262-19.301
			c14.109-3.969,27.328-5.953,39.646-5.953h245.962v93.798h-245.191c-5.137,0-9.178,0.541-12.125,1.623
			c-2.953,1.083-5.137,2.525-6.544,4.329c-1.413,1.804-2.249,3.732-2.502,5.772c-0.259,2.046-0.385,4.03-0.385,5.953
			c0.253,3.85,1.022,6.854,2.31,9.019c1.281,2.164,2.887,3.731,4.812,4.689c1.925,0.964,4.102,1.506,6.544,1.624
			c2.436,0.124,4.811,0.18,7.12,0.18h155.121c25.657,0,47.472,4.329,65.437,12.988c17.958,8.658,32.459,19.543,43.495,32.648
			c11.03,13.111,19.054,27.361,24.058,42.75C4116.308,1154.029,4118.81,1168.341,4118.81,1181.565z"/>
		<path fill="#5F6060" d="M4560.308,1017.059h-174.752v296.184h-101.232v-296.184h-130.102v-93.798h130.102V795.913h101.232v127.348
			h174.752V1017.059z"/>
		<path fill="#5F6060" d="M4987.949,1017.059h-225.176c-13.604,0-23.864,3.19-30.793,9.561
			c-6.929,6.375-10.393,15.692-10.393,27.958v258.665H4621.51v-258.665c0-16.109,2.177-30.54,6.543-43.291
			c4.361-12.745,10.201-23.99,17.514-33.73c7.313-9.741,15.716-18.038,25.213-24.893c9.49-6.854,19.438-12.446,29.83-16.775
			c10.394-4.329,20.912-7.514,31.563-9.561c10.646-2.04,20.593-3.066,29.831-3.066h225.945V1017.059z"/>
		<path fill="#5F6060" d="M5372.48,1313.242h-180.525c-14.374,0-29.705-2.283-45.997-6.854
			c-16.299-4.565-31.503-12.085-45.613-22.548c-14.115-10.462-25.789-24.047-35.027-40.766
			c-9.237-16.713-13.856-37.215-13.856-61.509V923.261h100.078v258.305c0,12.266,3.464,21.646,10.393,28.139
			c6.929,6.494,17.188,9.74,30.793,9.74h179.756V1313.242z M5512.59,1350.761c0,16.11-2.183,30.603-6.543,43.472
			c-4.367,12.863-10.141,24.171-17.321,33.912c-7.188,9.74-15.529,18.037-25.02,24.892c-9.497,6.854-19.438,12.446-29.831,16.775
			s-20.852,7.515-31.371,9.561c-10.524,2.04-20.532,3.066-30.023,3.066h-180.525v-93.798h180.525c13.34,0,23.348-3.246,30.023-9.74
			c6.67-6.493,10.008-15.873,10.008-28.14v-427.5h100.078V1350.761z"/>
	</g>
	<g>
		<g>
			<g>
				<polygon fill="#F38320" points="616.982,80.766 50.593,353.359 333.793,492.053 897.641,219.46 				"/>
				<polygon fill="#F38320" points="1183.648,80.766 1750.041,353.359 1466.852,492.053 902.999,219.46 				"/>
			</g>
			<g>
				<polygon fill="#F38320" points="616.982,903.344 50.593,630.747 333.793,492.053 897.641,764.652 				"/>
				<polygon fill="#F38320" points="1183.648,903.344 1750.041,630.747 1466.852,492.053 902.999,764.652 				"/>
			</g>
		</g>
		<polygon fill="#F38320" points="357.514,828.631 357.514,1144.56 887.193,1401.784 887.193,828.631 622.355,964.035 		"/>
		<polygon fill="#F38320" points="1458.687,828.631 1458.687,1144.56 929.009,1401.784 929.009,828.631 1193.845,964.035 		"/>
	</g>
</g>
<g>
</g>
<g>
</g>
<g>
</g>
<g>
</g>
<g>
</g>
<g>
</g>
</svg>
