<svg width="37" height="37" viewBox="0 0 37 37" fill="none" xmlns="http://www.w3.org/2000/svg">
<g clip-path="url(#clip0_1894_39572)">
<path d="M30.2917 11.2501H27.2083C27.2083 6.93341 23.8167 3.54175 19.5 3.54175C15.1833 3.54175 11.7917 6.93341 11.7917 11.2501H8.70833C7.0125 11.2501 5.625 12.6376 5.625 14.3334V32.8334C5.625 34.5292 7.0125 35.9167 8.70833 35.9167H30.2917C31.9875 35.9167 33.375 34.5292 33.375 32.8334V14.3334C33.375 12.6376 31.9875 11.2501 30.2917 11.2501ZM19.5 6.62508C22.1208 6.62508 24.125 8.62925 24.125 11.2501H14.875C14.875 8.62925 16.8792 6.62508 19.5 6.62508ZM30.2917 32.8334H8.70833V14.3334H30.2917V32.8334ZM19.5 20.5001C16.8792 20.5001 14.875 18.4959 14.875 15.8751H11.7917C11.7917 20.1917 15.1833 23.5834 19.5 23.5834C23.8167 23.5834 27.2083 20.1917 27.2083 15.8751H24.125C24.125 18.4959 22.1208 20.5001 19.5 20.5001Z" fill="#FF8400"/>
</g>
<defs>
<clipPath id="clip0_1894_39572">
<rect width="37" height="37" fill="white"/>
</clipPath>
</defs>
</svg>
