<svg width="30" height="30" viewBox="0 0 30 30" fill="none" xmlns="http://www.w3.org/2000/svg">
<path d="M9.85083 22.8904V24.4129C9.85083 25.0127 9.98694 25.6066 10.2514 26.1608C10.5158 26.7149 10.9034 27.2184 11.3921 27.6425C11.8808 28.0667 12.4608 28.4032 13.0991 28.6326C13.7376 28.8622 14.4218 28.9803 15.1129 28.9803C15.804 28.9803 16.4883 28.8622 17.1267 28.6326C17.765 28.4032 18.3451 28.0667 18.8338 27.6425C19.3224 27.2184 19.7101 26.7149 19.9744 26.1608C20.2389 25.6066 20.375 25.0127 20.375 24.4129V22.8904" stroke="#FF8400" stroke-width="1.7" stroke-linecap="round" stroke-linejoin="round"/>
<path d="M29.1454 22.89C29.1454 22.89 25.6373 15.2776 25.6373 10.7101C25.6373 5.73463 20.8453 1.5752 15.1131 1.5752C9.38091 1.5752 4.58888 5.73463 4.58888 10.7101C4.58888 16.8001 1.08081 22.89 1.08081 22.89H29.1454Z" stroke="#FF8400" stroke-width="1.7" stroke-linecap="round" stroke-linejoin="round"/>
</svg>
