<svg width="42" height="8" viewBox="0 0 42 8" fill="none" xmlns="http://www.w3.org/2000/svg">
<path d="M4 8C6.20914 8 8 6.20914 8 4C8 1.79086 6.20914 0 4 0C1.79086 0 0 1.79086 0 4C0 6.20914 1.79086 8 4 8Z" fill="#545454"/>
<path d="M21 8C23.2091 8 25 6.20914 25 4C25 1.79086 23.2091 0 21 0C18.7909 0 17 1.79086 17 4C17 6.20914 18.7909 8 21 8Z" fill="#545454"/>
<path d="M38 8C40.2091 8 42 6.20914 42 4C42 1.79086 40.2091 0 38 0C35.7909 0 34 1.79086 34 4C34 6.20914 35.7909 8 38 8Z" fill="#545454"/>
</svg>
