<svg xmlns="http://www.w3.org/2000/svg" xmlns:xlink="http://www.w3.org/1999/xlink" width="150" zoomAndPan="magnify" viewBox="0 0 112.5 74.999997" height="100" preserveAspectRatio="xMidYMid meet" version="1.0"><defs><clipPath id="50dd2667e4"><path d="M 0 0.164062 L 112.003906 0.164062 L 112.003906 74.832031 L 0 74.832031 Z M 0 0.164062 " clip-rule="nonzero"/></clipPath><clipPath id="0144eb8410"><path d="M 26.457031 8.144531 L 85.707031 8.144531 L 85.707031 67.394531 L 26.457031 67.394531 Z M 26.457031 8.144531 " clip-rule="nonzero"/></clipPath><clipPath id="19cd2bb2b9"><path d="M 39.507812 19.527344 L 73.257812 19.527344 L 73.257812 55.527344 L 39.507812 55.527344 Z M 39.507812 19.527344 " clip-rule="nonzero"/></clipPath></defs><g clip-path="url(#50dd2667e4)"><path fill="#ffffff" d="M 0 0.164062 L 112.5 0.164062 L 112.5 75.164062 L 0 75.164062 Z M 0 0.164062 " fill-opacity="1" fill-rule="nonzero"/><path fill="#ff8400" d="M 0 0.164062 L 112.5 0.164062 L 112.5 75.164062 L 0 75.164062 Z M 0 0.164062 " fill-opacity="1" fill-rule="nonzero"/></g><g clip-path="url(#0144eb8410)"><path fill="#ffffff" d="M 85.273438 8.554688 L 32.460938 8.554688 C 31.519531 8.554688 30.660156 8.941406 30.042969 9.570312 C 29.945312 9.667969 29.851562 9.773438 29.765625 9.882812 C 29.941406 9.859375 30.121094 9.84375 30.300781 9.84375 L 83.511719 9.84375 L 83.511719 36.144531 C 83.796875 36.609375 84.308594 36.914062 84.886719 36.914062 C 84.308594 36.914062 83.800781 37.222656 83.511719 37.683594 L 83.511719 63.542969 C 83.511719 64.0625 83.410156 64.558594 83.222656 65.011719 C 83.613281 64.835938 83.96875 64.589844 84.265625 64.289062 C 84.886719 63.664062 85.273438 62.796875 85.273438 61.847656 Z M 32.464844 8.148438 L 85.675781 8.148438 L 85.675781 61.847656 C 85.675781 62.90625 85.246094 63.875 84.550781 64.574219 C 84.113281 65.019531 83.566406 65.355469 82.960938 65.542969 C 82.800781 65.808594 82.609375 66.050781 82.390625 66.269531 C 81.699219 66.96875 80.742188 67.40625 79.6875 67.40625 L 26.476562 67.40625 L 26.476562 13.707031 C 26.476562 12.644531 26.90625 11.679688 27.597656 10.980469 C 28.039062 10.535156 28.582031 10.199219 29.191406 10.011719 C 29.351562 9.746094 29.542969 9.503906 29.761719 9.28125 C 30.453125 8.582031 31.410156 8.148438 32.464844 8.148438 Z M 28.636719 35.234375 C 28.359375 35.738281 27.828125 36.082031 27.214844 36.082031 C 27.824219 36.082031 28.359375 36.425781 28.636719 36.929688 L 28.636719 65.710938 L 81.847656 65.710938 C 82.027344 65.710938 82.207031 65.699219 82.382812 65.671875 C 82.296875 65.78125 82.207031 65.886719 82.105469 65.984375 C 81.484375 66.613281 80.628906 67.003906 79.683594 67.003906 L 26.875 67.003906 L 26.875 13.707031 C 26.875 12.757812 27.261719 11.890625 27.882812 11.265625 C 28.179688 10.964844 28.535156 10.71875 28.925781 10.542969 C 28.738281 10.996094 28.636719 11.492188 28.636719 12.011719 Z M 29.035156 36.929688 C 29.3125 36.421875 29.84375 36.082031 30.457031 36.082031 C 29.84375 36.082031 29.3125 35.738281 29.035156 35.234375 L 29.035156 12.011719 C 29.035156 11.414062 29.1875 10.847656 29.457031 10.355469 C 29.726562 10.285156 30.011719 10.246094 30.304688 10.246094 L 83.117188 10.246094 L 83.117188 35.976562 C 82.855469 36.53125 82.296875 36.914062 81.652344 36.914062 C 82.296875 36.914062 82.855469 37.296875 83.117188 37.847656 L 83.117188 63.539062 C 83.117188 64.140625 82.960938 64.703125 82.695312 65.195312 C 82.425781 65.265625 82.140625 65.304688 81.847656 65.304688 L 29.035156 65.304688 Z M 29.035156 36.929688 " fill-opacity="1" fill-rule="evenodd"/></g><g clip-path="url(#19cd2bb2b9)"><path fill="#ffffff" d="M 45.515625 45.046875 C 46.347656 45.585938 47.238281 46.035156 48.101562 46.523438 C 48.390625 46.691406 48.492188 47.054688 48.324219 47.339844 C 48.15625 47.625 47.785156 47.722656 47.496094 47.558594 C 47.175781 47.375 46.902344 47.226562 46.636719 47.082031 C 45.640625 46.535156 44.160156 45.773438 43.492188 44.851562 C 43.257812 44.523438 43.082031 44.160156 42.972656 43.746094 L 41.660156 38.847656 C 41.34375 37.675781 40.921875 37.164062 40.523438 37.035156 C 40.414062 37 40.304688 36.996094 40.203125 37.019531 C 40.09375 37.046875 39.984375 37.101562 39.890625 37.175781 C 39.667969 37.355469 39.527344 37.625 39.578125 37.847656 L 41.773438 46.921875 C 41.9375 47.605469 42.324219 48.097656 42.941406 48.445312 L 48.160156 51.414062 C 48.183594 51.425781 48.207031 51.441406 48.230469 51.457031 L 52.265625 50.355469 L 51.640625 48.054688 C 51.226562 46.527344 50.898438 46.375 49.535156 45.746094 C 48.546875 45.289062 47.289062 44.710938 46.171875 43.953125 C 45.859375 43.8125 45.46875 43.878906 45.289062 44.183594 C 45.085938 44.53125 45.222656 44.808594 45.515625 45.046875 Z M 63.667969 27.394531 C 60.058594 27.394531 57.132812 30.273438 57.132812 33.828125 C 57.132812 37.378906 60.058594 40.261719 63.667969 40.261719 C 67.277344 40.261719 70.203125 37.378906 70.203125 33.828125 C 70.203125 30.273438 67.277344 27.394531 63.667969 27.394531 Z M 63.667969 39.339844 C 60.578125 39.339844 58.070312 36.871094 58.070312 33.828125 C 58.070312 30.785156 60.578125 28.316406 63.667969 28.316406 C 66.757812 28.316406 69.265625 30.785156 69.265625 33.828125 C 69.265625 36.871094 66.757812 39.339844 63.667969 39.339844 Z M 63.667969 29.511719 C 61.25 29.511719 59.285156 31.445312 59.285156 33.828125 C 59.285156 36.210938 61.25 38.140625 63.667969 38.140625 C 66.089844 38.140625 68.050781 36.210938 68.050781 33.828125 C 68.050781 31.445312 66.089844 29.511719 63.667969 29.511719 Z M 64.277344 36.777344 L 64.277344 36.9375 C 64.277344 37.265625 64.003906 37.535156 63.667969 37.535156 C 63.332031 37.535156 63.0625 37.265625 63.0625 36.9375 L 63.0625 36.765625 C 62.289062 36.582031 61.675781 36.066406 61.480469 35.292969 C 61.398438 34.972656 61.597656 34.648438 61.921875 34.570312 C 62.25 34.488281 62.578125 34.6875 62.65625 35.007812 C 62.773438 35.46875 63.277344 35.65625 63.71875 35.644531 C 63.761719 35.644531 63.816406 35.640625 63.886719 35.632812 C 64.167969 35.597656 64.671875 35.460938 64.664062 35.105469 C 64.664062 35.097656 64.660156 35.078125 64.65625 35.046875 C 64.601562 34.585938 63.957031 34.460938 63.574219 34.398438 C 62.613281 34.242188 61.683594 33.78125 61.628906 32.699219 C 61.585938 31.796875 62.214844 31.125 63.0625 30.898438 L 63.0625 30.71875 C 63.0625 30.386719 63.332031 30.121094 63.667969 30.121094 C 64.003906 30.121094 64.277344 30.386719 64.277344 30.71875 L 64.277344 30.890625 C 64.871094 31.042969 65.414062 31.433594 65.699219 32.101562 C 65.828125 32.40625 65.683594 32.757812 65.371094 32.886719 C 65.0625 33.015625 64.707031 32.871094 64.578125 32.566406 C 64.386719 32.121094 63.910156 31.941406 63.449219 32.03125 C 63.136719 32.09375 62.820312 32.292969 62.839844 32.644531 C 62.859375 33.050781 63.449219 33.167969 63.769531 33.21875 C 64.765625 33.382812 65.726562 33.800781 65.863281 34.90625 C 65.867188 34.953125 65.871094 35.007812 65.875 35.074219 C 65.898438 36.023438 65.144531 36.597656 64.277344 36.777344 Z M 63.863281 19.644531 C 65.027344 20.992188 66.1875 22.34375 67.351562 23.691406 C 67.492188 23.855469 67.375 24.105469 67.160156 24.105469 C 66.617188 24.105469 66.074219 24.105469 65.535156 24.105469 L 65.535156 26.421875 C 64.9375 26.273438 64.3125 26.195312 63.667969 26.195312 C 63.023438 26.195312 62.402344 26.273438 61.804688 26.421875 L 61.804688 24.105469 C 61.261719 24.105469 60.71875 24.105469 60.175781 24.105469 C 59.960938 24.105469 59.84375 23.855469 59.984375 23.691406 C 61.148438 22.34375 62.3125 20.992188 63.476562 19.644531 C 63.578125 19.527344 63.761719 19.527344 63.863281 19.644531 Z M 49.097656 24.652344 C 46.679688 24.652344 44.714844 26.585938 44.714844 28.96875 C 44.714844 31.351562 46.679688 33.28125 49.097656 33.28125 C 51.519531 33.28125 53.480469 31.351562 53.480469 28.96875 C 53.480469 26.585938 51.519531 24.652344 49.097656 24.652344 Z M 49.707031 31.917969 L 49.707031 32.078125 C 49.707031 32.40625 49.433594 32.675781 49.097656 32.675781 C 48.761719 32.675781 48.492188 32.40625 48.492188 32.078125 L 48.492188 31.90625 C 47.71875 31.722656 47.105469 31.207031 46.910156 30.433594 C 46.828125 30.113281 47.027344 29.789062 47.351562 29.710938 C 47.679688 29.628906 48.007812 29.828125 48.085938 30.148438 C 48.203125 30.609375 48.707031 30.796875 49.148438 30.785156 C 49.191406 30.785156 49.246094 30.78125 49.316406 30.773438 C 49.601562 30.738281 50.101562 30.601562 50.09375 30.246094 C 50.09375 30.238281 50.089844 30.21875 50.085938 30.1875 C 50.03125 29.726562 49.386719 29.601562 49.003906 29.539062 C 48.042969 29.382812 47.113281 28.921875 47.058594 27.839844 C 47.015625 26.9375 47.644531 26.265625 48.492188 26.039062 L 48.492188 25.859375 C 48.492188 25.527344 48.761719 25.261719 49.097656 25.261719 C 49.433594 25.261719 49.707031 25.527344 49.707031 25.859375 L 49.707031 26.03125 C 50.300781 26.183594 50.84375 26.574219 51.128906 27.242188 C 51.257812 27.546875 51.113281 27.898438 50.800781 28.027344 C 50.492188 28.15625 50.136719 28.011719 50.007812 27.707031 C 49.816406 27.261719 49.339844 27.082031 48.878906 27.171875 C 48.566406 27.234375 48.253906 27.433594 48.269531 27.785156 C 48.289062 28.191406 48.878906 28.308594 49.199219 28.359375 C 50.195312 28.523438 51.15625 28.941406 51.292969 30.046875 C 51.296875 30.09375 51.300781 30.148438 51.304688 30.214844 C 51.328125 31.164062 50.574219 31.738281 49.707031 31.917969 Z M 49.097656 22.535156 C 45.488281 22.535156 42.566406 25.414062 42.566406 28.96875 C 42.566406 32.519531 45.488281 35.402344 49.097656 35.402344 C 52.707031 35.402344 55.632812 32.519531 55.632812 28.96875 C 55.632812 25.414062 52.707031 22.535156 49.097656 22.535156 Z M 49.097656 34.476562 C 46.007812 34.476562 43.5 32.011719 43.5 28.96875 C 43.5 25.925781 46.007812 23.457031 49.097656 23.457031 C 52.1875 23.457031 54.695312 25.925781 54.695312 28.96875 C 54.695312 32.011719 52.1875 34.476562 49.097656 34.476562 Z M 49.292969 43.152344 C 49.191406 43.269531 49.007812 43.269531 48.90625 43.152344 C 47.742188 41.800781 46.578125 40.453125 45.414062 39.101562 C 45.273438 38.9375 45.390625 38.691406 45.605469 38.691406 C 46.148438 38.691406 46.691406 38.691406 47.234375 38.691406 L 47.234375 36.375 C 47.832031 36.519531 48.457031 36.597656 49.097656 36.597656 C 49.742188 36.597656 50.367188 36.519531 50.964844 36.375 L 50.964844 38.691406 C 51.503906 38.691406 52.046875 38.691406 52.589844 38.691406 C 52.804688 38.691406 52.921875 38.9375 52.78125 39.101562 C 51.621094 40.453125 50.457031 41.800781 49.292969 43.152344 Z M 65.695312 53.015625 L 59.019531 51.191406 C 58.695312 51.105469 58.359375 51.292969 58.269531 51.609375 L 57.914062 52.875 C 57.824219 53.195312 58.015625 53.527344 58.335938 53.613281 L 65.015625 55.4375 C 65.339844 55.523438 65.675781 55.335938 65.765625 55.019531 L 66.121094 53.753906 C 66.210938 53.433594 66.019531 53.101562 65.695312 53.015625 Z M 59.769531 52.855469 C 59.632812 53.035156 59.375 53.074219 59.191406 52.9375 C 59.007812 52.804688 58.96875 52.546875 59.105469 52.367188 C 59.242188 52.1875 59.5 52.148438 59.683594 52.28125 C 59.867188 52.417969 59.90625 52.671875 59.769531 52.855469 Z M 54.855469 52.875 L 54.496094 51.609375 C 54.40625 51.292969 54.070312 51.105469 53.746094 51.191406 L 47.070312 53.015625 C 46.746094 53.101562 46.554688 53.433594 46.644531 53.753906 L 47 55.019531 C 47.089844 55.335938 47.429688 55.523438 47.75 55.4375 L 54.429688 53.613281 C 54.753906 53.527344 54.941406 53.195312 54.855469 52.875 Z M 53.578125 52.9375 C 53.394531 53.074219 53.132812 53.035156 52.996094 52.855469 C 52.859375 52.671875 52.898438 52.417969 53.082031 52.28125 C 53.265625 52.148438 53.523438 52.1875 53.660156 52.367188 C 53.796875 52.546875 53.761719 52.804688 53.578125 52.9375 Z M 66.132812 47.082031 C 65.863281 47.226562 65.589844 47.375 65.269531 47.558594 C 64.980469 47.722656 64.609375 47.625 64.441406 47.339844 C 64.273438 47.054688 64.375 46.691406 64.664062 46.523438 C 65.527344 46.035156 66.417969 45.585938 67.25 45.046875 C 67.542969 44.8125 67.683594 44.53125 67.480469 44.1875 C 67.296875 43.878906 66.90625 43.808594 66.59375 43.953125 C 65.476562 44.710938 64.21875 45.289062 63.230469 45.746094 C 61.867188 46.375 61.539062 46.527344 61.125 48.054688 L 60.503906 50.355469 L 64.535156 51.457031 C 64.558594 51.441406 64.582031 51.425781 64.605469 51.414062 L 69.828125 48.445312 C 70.441406 48.097656 70.828125 47.605469 70.996094 46.921875 L 73.1875 37.847656 C 73.238281 37.625 73.101562 37.359375 72.875 37.175781 C 72.78125 37.101562 72.675781 37.046875 72.5625 37.019531 C 72.460938 36.996094 72.351562 37 72.242188 37.035156 C 71.847656 37.164062 71.421875 37.675781 71.109375 38.847656 L 69.796875 43.746094 C 69.683594 44.160156 69.507812 44.523438 69.273438 44.851562 C 68.601562 45.78125 67.078125 46.5625 66.132812 47.082031 Z M 66.132812 47.082031 " fill-opacity="1" fill-rule="evenodd"/></g></svg>