<svg xmlns="http://www.w3.org/2000/svg" xmlns:xlink="http://www.w3.org/1999/xlink" width="150" zoomAndPan="magnify" viewBox="0 0 112.5 74.999997" height="100" preserveAspectRatio="xMidYMid meet" version="1.0"><defs><clipPath id="70f2ba9924"><path d="M 0 0.164062 L 112.003906 0.164062 L 112.003906 74.832031 L 0 74.832031 Z M 0 0.164062 " clip-rule="nonzero"/></clipPath><clipPath id="0e11822706"><path d="M 26.457031 8.144531 L 85.707031 8.144531 L 85.707031 67.394531 L 26.457031 67.394531 Z M 26.457031 8.144531 " clip-rule="nonzero"/></clipPath><clipPath id="9711fe11ea"><path d="M 37.96875 20.050781 L 74.71875 20.050781 L 74.71875 55.300781 L 37.96875 55.300781 Z M 37.96875 20.050781 " clip-rule="nonzero"/></clipPath></defs><g clip-path="url(#70f2ba9924)"><path fill="#ffffff" d="M 0 0.164062 L 112.5 0.164062 L 112.5 75.164062 L 0 75.164062 Z M 0 0.164062 " fill-opacity="1" fill-rule="nonzero"/><path fill="#ff8400" d="M 0 0.164062 L 112.5 0.164062 L 112.5 75.164062 L 0 75.164062 Z M 0 0.164062 " fill-opacity="1" fill-rule="nonzero"/></g><g clip-path="url(#0e11822706)"><path fill="#ffffff" d="M 85.273438 8.554688 L 32.460938 8.554688 C 31.519531 8.554688 30.660156 8.941406 30.042969 9.570312 C 29.945312 9.667969 29.851562 9.773438 29.765625 9.882812 C 29.941406 9.859375 30.121094 9.84375 30.300781 9.84375 L 83.511719 9.84375 L 83.511719 36.144531 C 83.796875 36.609375 84.308594 36.914062 84.886719 36.914062 C 84.308594 36.914062 83.800781 37.222656 83.511719 37.683594 L 83.511719 63.542969 C 83.511719 64.0625 83.410156 64.558594 83.222656 65.011719 C 83.613281 64.835938 83.96875 64.589844 84.265625 64.289062 C 84.886719 63.664062 85.273438 62.796875 85.273438 61.847656 Z M 32.464844 8.148438 L 85.675781 8.148438 L 85.675781 61.847656 C 85.675781 62.90625 85.246094 63.875 84.550781 64.574219 C 84.113281 65.019531 83.566406 65.355469 82.960938 65.542969 C 82.800781 65.808594 82.609375 66.050781 82.390625 66.269531 C 81.699219 66.96875 80.742188 67.40625 79.6875 67.40625 L 26.476562 67.40625 L 26.476562 13.707031 C 26.476562 12.644531 26.90625 11.679688 27.597656 10.980469 C 28.039062 10.535156 28.582031 10.199219 29.191406 10.011719 C 29.351562 9.746094 29.542969 9.503906 29.761719 9.28125 C 30.453125 8.582031 31.410156 8.148438 32.464844 8.148438 Z M 28.636719 35.234375 C 28.359375 35.738281 27.828125 36.082031 27.214844 36.082031 C 27.824219 36.082031 28.359375 36.425781 28.636719 36.929688 L 28.636719 65.710938 L 81.847656 65.710938 C 82.027344 65.710938 82.207031 65.699219 82.382812 65.671875 C 82.296875 65.78125 82.207031 65.886719 82.105469 65.984375 C 81.484375 66.613281 80.628906 67.003906 79.683594 67.003906 L 26.875 67.003906 L 26.875 13.707031 C 26.875 12.757812 27.261719 11.890625 27.882812 11.265625 C 28.179688 10.964844 28.535156 10.71875 28.925781 10.542969 C 28.738281 10.996094 28.636719 11.492188 28.636719 12.011719 Z M 29.035156 36.929688 C 29.3125 36.421875 29.84375 36.082031 30.457031 36.082031 C 29.84375 36.082031 29.3125 35.738281 29.035156 35.234375 L 29.035156 12.011719 C 29.035156 11.414062 29.1875 10.847656 29.457031 10.355469 C 29.726562 10.285156 30.011719 10.246094 30.304688 10.246094 L 83.117188 10.246094 L 83.117188 35.976562 C 82.855469 36.53125 82.296875 36.914062 81.652344 36.914062 C 82.296875 36.914062 82.855469 37.296875 83.117188 37.847656 L 83.117188 63.539062 C 83.117188 64.140625 82.960938 64.703125 82.695312 65.195312 C 82.425781 65.265625 82.140625 65.304688 81.847656 65.304688 L 29.035156 65.304688 Z M 29.035156 36.929688 " fill-opacity="1" fill-rule="evenodd"/></g><g clip-path="url(#9711fe11ea)"><path fill="#ffffff" d="M 57.242188 52.683594 C 57.242188 52.195312 57.242188 51.703125 57.242188 51.214844 C 57.242188 50.425781 57.652344 50.003906 58.445312 49.996094 C 58.730469 49.992188 59.019531 49.996094 59.339844 49.996094 L 59.339844 48.644531 C 59.339844 47.730469 59.742188 47.335938 60.667969 47.335938 C 61.410156 47.335938 62.152344 47.335938 62.894531 47.335938 C 62.984375 47.335938 63.074219 47.324219 63.222656 47.3125 C 63.085938 47.210938 63.003906 47.148438 62.917969 47.089844 C 62.132812 46.550781 61.464844 45.894531 60.910156 45.121094 C 60.355469 44.347656 59.945312 43.503906 59.6875 42.589844 C 59.675781 42.480469 59.625 42.390625 59.535156 42.324219 C 59.445312 42.261719 59.34375 42.238281 59.234375 42.257812 C 53.195312 42.265625 47.160156 42.265625 41.121094 42.261719 C 40.976562 42.265625 40.832031 42.261719 40.6875 42.246094 C 40.535156 42.226562 40.410156 42.160156 40.3125 42.046875 C 40.210938 41.933594 40.164062 41.804688 40.164062 41.652344 C 40.160156 41.496094 40.207031 41.359375 40.308594 41.242188 C 40.410156 41.121094 40.535156 41.050781 40.691406 41.03125 C 40.816406 41.019531 40.941406 41.015625 41.066406 41.019531 L 59.300781 41.019531 C 59.371094 40.09375 59.4375 39.199219 59.503906 38.277344 L 41.085938 38.277344 C 40.960938 38.28125 40.835938 38.277344 40.710938 38.269531 C 40.554688 38.253906 40.425781 38.1875 40.320312 38.070312 C 40.214844 37.957031 40.164062 37.820312 40.164062 37.667969 C 40.160156 37.277344 40.429688 37.039062 40.898438 37.039062 C 43.039062 37.039062 45.183594 37.039062 47.324219 37.039062 C 51.441406 37.039062 55.5625 37.042969 59.679688 37.042969 C 59.894531 37.0625 60.035156 36.972656 60.113281 36.773438 C 60.46875 36.152344 60.863281 35.550781 61.261719 34.953125 C 61.4375 34.722656 61.625 34.503906 61.824219 34.296875 L 41.058594 34.296875 C 40.933594 34.300781 40.808594 34.296875 40.683594 34.285156 C 40.53125 34.261719 40.40625 34.1875 40.304688 34.070312 C 40.207031 33.949219 40.160156 33.8125 40.164062 33.65625 C 40.167969 33.503906 40.21875 33.375 40.320312 33.261719 C 40.417969 33.152344 40.546875 33.085938 40.695312 33.070312 C 40.839844 33.054688 40.984375 33.046875 41.128906 33.050781 C 48.351562 33.050781 55.578125 33.054688 62.804688 33.054688 C 63.21875 33.054688 63.613281 32.96875 63.988281 32.792969 C 64.734375 32.46875 65.511719 32.222656 66.3125 31.933594 L 66.3125 29.304688 L 65.929688 29.304688 C 63.375 29.304688 60.816406 29.304688 58.261719 29.308594 C 57.605469 29.308594 57.410156 29.113281 57.410156 28.472656 C 57.410156 25.785156 57.410156 23.097656 57.410156 20.40625 L 57.410156 20.058594 L 37.96875 20.058594 L 37.96875 55.289062 L 58.636719 55.289062 L 58.636719 53.902344 C 58.539062 53.898438 58.484375 53.890625 58.425781 53.890625 C 57.644531 53.867188 57.242188 53.457031 57.242188 52.683594 Z M 39.753906 25.34375 C 39.710938 25.191406 39.722656 25.046875 39.792969 24.90625 C 39.859375 24.765625 39.964844 24.664062 40.109375 24.601562 C 41.332031 23.835938 42.558594 23.078125 43.78125 22.3125 C 43.90625 22.222656 44.046875 22.179688 44.199219 22.179688 C 44.355469 22.179688 44.492188 22.226562 44.617188 22.316406 C 45.832031 23.078125 47.050781 23.832031 48.265625 24.59375 C 48.621094 24.816406 48.726562 25.039062 48.632812 25.351562 C 48.542969 25.660156 48.320312 25.800781 47.921875 25.8125 C 47.777344 25.816406 47.632812 25.8125 47.449219 25.8125 L 47.449219 28.726562 C 47.449219 28.878906 47.449219 29.035156 47.449219 29.1875 C 47.445312 29.695312 47.21875 29.925781 46.707031 29.929688 C 45.183594 29.933594 43.660156 29.929688 42.136719 29.929688 C 41.964844 29.929688 41.789062 29.933594 41.617188 29.925781 C 41.523438 29.9375 41.433594 29.921875 41.34375 29.890625 C 41.257812 29.859375 41.179688 29.808594 41.117188 29.742188 C 41.050781 29.671875 41.003906 29.597656 40.972656 29.507812 C 40.945312 29.417969 40.933594 29.328125 40.945312 29.234375 C 40.941406 28.21875 40.945312 27.203125 40.945312 26.183594 L 40.945312 25.8125 C 40.753906 25.8125 40.59375 25.816406 40.433594 25.8125 C 40.277344 25.824219 40.136719 25.789062 40.007812 25.699219 C 39.878906 25.609375 39.792969 25.492188 39.753906 25.34375 Z M 56.4375 49.636719 C 56.433594 49.769531 56.386719 49.886719 56.300781 49.992188 C 56.21875 50.097656 56.109375 50.164062 55.980469 50.195312 C 55.847656 50.222656 55.714844 50.234375 55.578125 50.234375 C 50.726562 50.238281 45.875 50.238281 41.019531 50.238281 C 40.972656 50.238281 40.925781 50.238281 40.875 50.238281 C 40.429688 50.214844 40.164062 49.984375 40.164062 49.609375 C 40.164062 49.21875 40.4375 48.980469 40.90625 48.980469 C 43.375 48.980469 45.84375 48.980469 48.3125 48.980469 C 50.734375 48.980469 53.15625 48.980469 55.578125 48.984375 C 55.730469 48.980469 55.882812 49 56.035156 49.039062 C 56.160156 49.082031 56.261719 49.15625 56.335938 49.269531 C 56.414062 49.378906 56.445312 49.503906 56.4375 49.636719 Z M 56.4375 45.683594 C 56.425781 45.820312 56.371094 45.941406 56.273438 46.039062 C 56.179688 46.140625 56.0625 46.203125 55.925781 46.222656 C 55.800781 46.242188 55.675781 46.25 55.550781 46.25 C 50.71875 46.25 45.882812 46.25 41.050781 46.25 C 40.933594 46.25 40.820312 46.242188 40.707031 46.226562 C 40.542969 46.214844 40.410156 46.144531 40.304688 46.019531 C 40.199219 45.898438 40.152344 45.753906 40.164062 45.59375 C 40.171875 45.4375 40.230469 45.304688 40.339844 45.191406 C 40.445312 45.082031 40.578125 45.019531 40.734375 45.003906 C 40.828125 45 40.925781 44.996094 41.019531 45 L 48.3125 45 C 50.746094 45 53.175781 45 55.605469 45 C 55.742188 44.996094 55.875 45.007812 56.007812 45.039062 C 56.144531 45.082031 56.257812 45.164062 56.335938 45.285156 C 56.417969 45.40625 56.449219 45.539062 56.4375 45.683594 Z M 60.601562 40.246094 C 60.605469 40.707031 60.652344 41.164062 60.746094 41.613281 C 60.839844 42.066406 60.976562 42.503906 61.15625 42.929688 C 61.335938 43.351562 61.554688 43.757812 61.816406 44.136719 C 62.074219 44.519531 62.367188 44.875 62.699219 45.195312 C 63.027344 45.519531 63.386719 45.808594 63.769531 46.066406 C 64.15625 46.320312 64.566406 46.53125 64.992188 46.707031 C 65.421875 46.882812 65.863281 47.011719 66.316406 47.101562 C 66.773438 47.1875 67.230469 47.230469 67.695312 47.230469 C 68.15625 47.226562 68.617188 47.179688 69.070312 47.089844 C 69.523438 46.996094 69.964844 46.863281 70.390625 46.683594 C 70.816406 46.503906 71.222656 46.289062 71.605469 46.03125 C 71.992188 45.773438 72.347656 45.480469 72.671875 45.152344 C 73 44.828125 73.289062 44.472656 73.546875 44.085938 C 73.800781 43.703125 74.019531 43.296875 74.195312 42.871094 C 74.371094 42.445312 74.503906 42.003906 74.589844 41.554688 C 74.679688 41.101562 74.722656 40.644531 74.722656 40.183594 C 74.722656 39.722656 74.675781 39.265625 74.585938 38.8125 C 74.492188 38.363281 74.359375 37.921875 74.179688 37.496094 C 74.003906 37.074219 73.785156 36.667969 73.527344 36.285156 C 73.269531 35.902344 72.976562 35.546875 72.648438 35.222656 C 72.320312 34.898438 71.964844 34.605469 71.578125 34.351562 C 71.191406 34.097656 70.785156 33.878906 70.359375 33.703125 C 69.929688 33.527344 69.488281 33.394531 69.035156 33.304688 C 68.582031 33.214844 68.121094 33.171875 67.660156 33.171875 C 67.195312 33.171875 66.734375 33.21875 66.277344 33.308594 C 65.820312 33.402344 65.378906 33.535156 64.949219 33.714844 C 64.519531 33.894531 64.113281 34.113281 63.726562 34.371094 C 63.339844 34.628906 62.984375 34.921875 62.65625 35.25 C 62.328125 35.578125 62.035156 35.9375 61.78125 36.324219 C 61.523438 36.707031 61.304688 37.117188 61.128906 37.542969 C 60.953125 37.972656 60.820312 38.414062 60.734375 38.867188 C 60.644531 39.324219 60.601562 39.78125 60.601562 40.246094 Z M 64.128906 40.25 C 64.269531 40.152344 64.425781 40.121094 64.59375 40.152344 C 64.765625 40.179688 64.898438 40.265625 65 40.402344 C 65.320312 40.832031 65.628906 41.273438 65.96875 41.742188 C 66.066406 41.648438 66.140625 41.582031 66.214844 41.503906 C 67.585938 40.140625 68.957031 38.777344 70.324219 37.410156 C 70.5 37.195312 70.726562 37.121094 71 37.1875 C 71.253906 37.253906 71.402344 37.410156 71.449219 37.667969 C 71.492188 37.941406 71.402344 38.160156 71.175781 38.324219 C 69.597656 39.898438 68.015625 41.476562 66.433594 43.050781 C 66.402344 43.085938 66.367188 43.117188 66.332031 43.152344 C 66.269531 43.21875 66.195312 43.265625 66.109375 43.296875 C 66.023438 43.328125 65.9375 43.339844 65.847656 43.335938 C 65.753906 43.328125 65.671875 43.300781 65.589844 43.257812 C 65.511719 43.210938 65.445312 43.152344 65.394531 43.078125 C 64.910156 42.429688 64.441406 41.773438 63.980469 41.113281 C 63.875 40.972656 63.835938 40.820312 63.867188 40.648438 C 63.894531 40.476562 63.980469 40.34375 64.128906 40.25 Z M 65.464844 28.035156 L 58.679688 28.035156 L 58.679688 20.980469 Z M 60.621094 48.605469 L 74.714844 48.605469 L 74.714844 49.96875 L 60.621094 49.96875 Z M 58.507812 51.253906 L 72.597656 51.253906 L 72.597656 52.625 L 58.496094 52.625 C 58.496094 52.257812 58.496094 51.90625 58.496094 51.550781 C 58.496094 51.457031 58.503906 51.363281 58.507812 51.253906 Z M 74.019531 53.910156 C 74.019531 54.339844 74.019531 54.730469 74.019531 55.125 C 74.019531 55.171875 74.007812 55.214844 74 55.285156 L 59.914062 55.285156 L 59.914062 53.910156 Z M 46.167969 28.675781 L 42.226562 28.675781 L 42.226562 25.828125 L 46.167969 25.828125 Z M 42.667969 24.542969 L 42.644531 24.496094 C 43.136719 24.191406 43.628906 23.882812 44.121094 23.582031 C 44.1875 23.558594 44.246094 23.566406 44.304688 23.597656 C 44.785156 23.894531 45.261719 24.195312 45.742188 24.492188 L 45.722656 24.542969 Z M 42.667969 24.542969 " fill-opacity="1" fill-rule="nonzero"/></g></svg>