<svg xmlns="http://www.w3.org/2000/svg" xmlns:xlink="http://www.w3.org/1999/xlink" width="150" zoomAndPan="magnify" viewBox="0 0 112.5 74.999997" height="100" preserveAspectRatio="xMidYMid meet" version="1.0"><defs><clipPath id="5c8519b9ba"><path d="M 0 0.164062 L 112.003906 0.164062 L 112.003906 74.832031 L 0 74.832031 Z M 0 0.164062 " clip-rule="nonzero"/></clipPath><clipPath id="9ceb1af8f6"><path d="M 26.457031 8.144531 L 85.707031 8.144531 L 85.707031 67.394531 L 26.457031 67.394531 Z M 26.457031 8.144531 " clip-rule="nonzero"/></clipPath><clipPath id="5cd9c388b3"><path d="M 37.632812 37 L 51 37 L 51 55.230469 L 37.632812 55.230469 Z M 37.632812 37 " clip-rule="nonzero"/></clipPath><clipPath id="827bbd7875"><path d="M 62 37 L 75.132812 37 L 75.132812 55.230469 L 62 55.230469 Z M 62 37 " clip-rule="nonzero"/></clipPath><clipPath id="fe7f590524"><path d="M 47 19.980469 L 69 19.980469 L 69 37 L 47 37 Z M 47 19.980469 " clip-rule="nonzero"/></clipPath></defs><g clip-path="url(#5c8519b9ba)"><path fill="#ffffff" d="M 0 0.164062 L 112.5 0.164062 L 112.5 75.164062 L 0 75.164062 Z M 0 0.164062 " fill-opacity="1" fill-rule="nonzero"/><path fill="#ff8400" d="M 0 0.164062 L 112.5 0.164062 L 112.5 75.164062 L 0 75.164062 Z M 0 0.164062 " fill-opacity="1" fill-rule="nonzero"/></g><g clip-path="url(#9ceb1af8f6)"><path fill="#ffffff" d="M 85.273438 8.554688 L 32.460938 8.554688 C 31.519531 8.554688 30.660156 8.941406 30.042969 9.570312 C 29.945312 9.667969 29.851562 9.773438 29.765625 9.882812 C 29.941406 9.859375 30.121094 9.84375 30.300781 9.84375 L 83.511719 9.84375 L 83.511719 36.144531 C 83.796875 36.609375 84.308594 36.914062 84.886719 36.914062 C 84.308594 36.914062 83.800781 37.222656 83.511719 37.683594 L 83.511719 63.542969 C 83.511719 64.0625 83.410156 64.558594 83.222656 65.011719 C 83.613281 64.835938 83.96875 64.589844 84.265625 64.289062 C 84.886719 63.664062 85.273438 62.796875 85.273438 61.847656 Z M 32.464844 8.148438 L 85.675781 8.148438 L 85.675781 61.847656 C 85.675781 62.90625 85.246094 63.875 84.550781 64.574219 C 84.113281 65.019531 83.566406 65.355469 82.960938 65.542969 C 82.800781 65.808594 82.609375 66.050781 82.390625 66.269531 C 81.699219 66.96875 80.742188 67.40625 79.6875 67.40625 L 26.476562 67.40625 L 26.476562 13.707031 C 26.476562 12.644531 26.90625 11.679688 27.597656 10.980469 C 28.039062 10.535156 28.582031 10.199219 29.191406 10.011719 C 29.351562 9.746094 29.542969 9.503906 29.761719 9.28125 C 30.453125 8.582031 31.410156 8.148438 32.464844 8.148438 Z M 28.636719 35.234375 C 28.359375 35.738281 27.828125 36.082031 27.214844 36.082031 C 27.824219 36.082031 28.359375 36.425781 28.636719 36.929688 L 28.636719 65.710938 L 81.847656 65.710938 C 82.027344 65.710938 82.207031 65.699219 82.382812 65.671875 C 82.296875 65.78125 82.207031 65.886719 82.105469 65.984375 C 81.484375 66.613281 80.628906 67.003906 79.683594 67.003906 L 26.875 67.003906 L 26.875 13.707031 C 26.875 12.757812 27.261719 11.890625 27.882812 11.265625 C 28.179688 10.964844 28.535156 10.71875 28.925781 10.542969 C 28.738281 10.996094 28.636719 11.492188 28.636719 12.011719 Z M 29.035156 36.929688 C 29.3125 36.421875 29.84375 36.082031 30.457031 36.082031 C 29.84375 36.082031 29.3125 35.738281 29.035156 35.234375 L 29.035156 12.011719 C 29.035156 11.414062 29.1875 10.847656 29.457031 10.355469 C 29.726562 10.285156 30.011719 10.246094 30.304688 10.246094 L 83.117188 10.246094 L 83.117188 35.976562 C 82.855469 36.53125 82.296875 36.914062 81.652344 36.914062 C 82.296875 36.914062 82.855469 37.296875 83.117188 37.847656 L 83.117188 63.539062 C 83.117188 64.140625 82.960938 64.703125 82.695312 65.195312 C 82.425781 65.265625 82.140625 65.304688 81.847656 65.304688 L 29.035156 65.304688 Z M 29.035156 36.929688 " fill-opacity="1" fill-rule="evenodd"/></g><g clip-path="url(#5cd9c388b3)"><path fill="#ffffff" d="M 46.515625 45.441406 L 46.25 45.441406 C 47.558594 44.648438 48.441406 43.210938 48.441406 41.550781 C 48.441406 39.042969 46.441406 37.007812 43.976562 37.007812 C 41.511719 37.007812 39.511719 39.042969 39.511719 41.550781 C 39.511719 43.210938 40.394531 44.648438 41.699219 45.441406 L 41.4375 45.441406 C 39.332031 45.441406 37.628906 47.128906 37.628906 49.210938 L 37.628906 54.671875 C 39.671875 55.023438 41.769531 55.21875 43.914062 55.21875 C 46.101562 55.21875 48.242188 55.015625 50.324219 54.648438 L 50.324219 49.210938 C 50.324219 47.128906 48.621094 45.441406 46.515625 45.441406 " fill-opacity="1" fill-rule="nonzero"/></g><g clip-path="url(#827bbd7875)"><path fill="#ffffff" d="M 71.320312 45.441406 L 71.058594 45.441406 C 72.363281 44.648438 73.246094 43.210938 73.246094 41.550781 C 73.246094 39.042969 71.25 37.007812 68.78125 37.007812 C 66.316406 37.007812 64.316406 39.042969 64.316406 41.550781 C 64.316406 43.210938 65.199219 44.648438 66.507812 45.441406 L 66.242188 45.441406 C 64.140625 45.441406 62.4375 47.128906 62.4375 49.210938 L 62.4375 54.671875 C 64.476562 55.023438 66.574219 55.21875 68.71875 55.21875 C 70.90625 55.21875 73.046875 55.015625 75.128906 54.648438 L 75.128906 49.210938 C 75.128906 47.128906 73.425781 45.441406 71.320312 45.441406 " fill-opacity="1" fill-rule="nonzero"/></g><path fill="#ffffff" d="M 55.171875 36.230469 C 52.101562 36.230469 49.617188 38.019531 49.617188 40.222656 C 49.617188 41.367188 50.289062 42.398438 51.363281 43.125 L 50.8125 44.851562 L 52.523438 43.734375 C 53.308594 44.039062 54.210938 44.214844 55.171875 44.214844 C 58.238281 44.214844 60.722656 42.429688 60.722656 40.222656 C 60.722656 38.019531 58.238281 36.230469 55.171875 36.230469 " fill-opacity="1" fill-rule="nonzero"/><g clip-path="url(#fe7f590524)"><path fill="#ffffff" d="M 57.734375 21.285156 C 62.914062 21.285156 67.125 24.234375 67.125 27.859375 C 67.125 29.640625 66.105469 31.316406 64.25 32.570312 C 64.007812 32.734375 63.90625 33.03125 63.992188 33.304688 L 64.429688 34.671875 L 62.890625 33.664062 C 62.78125 33.59375 62.652344 33.558594 62.527344 33.558594 C 62.445312 33.558594 62.363281 33.570312 62.285156 33.601562 C 60.898438 34.144531 59.328125 34.429688 57.734375 34.429688 C 52.558594 34.429688 48.34375 31.480469 48.34375 27.859375 C 48.34375 24.234375 52.558594 21.285156 57.734375 21.285156 Z M 57.734375 35.730469 C 59.367188 35.730469 60.988281 35.457031 62.445312 34.933594 L 65.257812 36.773438 C 65.367188 36.847656 65.492188 36.882812 65.621094 36.882812 C 65.757812 36.882812 65.898438 36.839844 66.015625 36.75 C 66.238281 36.585938 66.332031 36.296875 66.246094 36.035156 L 65.390625 33.359375 C 67.335938 31.898438 68.441406 29.914062 68.441406 27.859375 C 68.441406 23.515625 63.636719 19.984375 57.734375 19.984375 C 51.832031 19.984375 47.027344 23.515625 47.027344 27.859375 C 47.027344 32.199219 51.832031 35.730469 57.734375 35.730469 " fill-opacity="1" fill-rule="nonzero"/></g><path fill="#ffffff" d="M 51.972656 26.535156 L 63.578125 26.535156 C 63.941406 26.535156 64.234375 26.246094 64.234375 25.882812 C 64.234375 25.527344 63.941406 25.234375 63.578125 25.234375 L 51.972656 25.234375 C 51.609375 25.234375 51.316406 25.527344 51.316406 25.882812 C 51.316406 26.246094 51.609375 26.535156 51.972656 26.535156 " fill-opacity="1" fill-rule="nonzero"/><path fill="#ffffff" d="M 51.972656 30.136719 L 63.578125 30.136719 C 63.941406 30.136719 64.234375 29.84375 64.234375 29.484375 C 64.234375 29.125 63.941406 28.835938 63.578125 28.835938 L 51.972656 28.835938 C 51.609375 28.835938 51.316406 29.125 51.316406 29.484375 C 51.316406 29.84375 51.609375 30.136719 51.972656 30.136719 " fill-opacity="1" fill-rule="nonzero"/></svg>