<svg xmlns="http://www.w3.org/2000/svg" xmlns:xlink="http://www.w3.org/1999/xlink" width="150" zoomAndPan="magnify" viewBox="0 0 112.5 74.999997" height="100" preserveAspectRatio="xMidYMid meet" version="1.0"><defs><clipPath id="41e5c89d6f"><path d="M 0 0.164062 L 112.003906 0.164062 L 112.003906 74.832031 L 0 74.832031 Z M 0 0.164062 " clip-rule="nonzero"/></clipPath><clipPath id="17f1c3eb72"><path d="M 26.457031 8.144531 L 85.707031 8.144531 L 85.707031 67.394531 L 26.457031 67.394531 Z M 26.457031 8.144531 " clip-rule="nonzero"/></clipPath><clipPath id="a065a4b817"><path d="M 38.0625 19.476562 L 74.8125 19.476562 L 74.8125 56.226562 L 38.0625 56.226562 Z M 38.0625 19.476562 " clip-rule="nonzero"/></clipPath></defs><g clip-path="url(#41e5c89d6f)"><path fill="#ffffff" d="M 0 0.164062 L 112.5 0.164062 L 112.5 75.164062 L 0 75.164062 Z M 0 0.164062 " fill-opacity="1" fill-rule="nonzero"/><path fill="#ff8400" d="M 0 0.164062 L 112.5 0.164062 L 112.5 75.164062 L 0 75.164062 Z M 0 0.164062 " fill-opacity="1" fill-rule="nonzero"/></g><g clip-path="url(#17f1c3eb72)"><path fill="#ffffff" d="M 85.273438 8.554688 L 32.460938 8.554688 C 31.519531 8.554688 30.660156 8.941406 30.042969 9.570312 C 29.945312 9.667969 29.851562 9.773438 29.765625 9.882812 C 29.941406 9.859375 30.121094 9.84375 30.300781 9.84375 L 83.511719 9.84375 L 83.511719 36.144531 C 83.796875 36.609375 84.308594 36.914062 84.886719 36.914062 C 84.308594 36.914062 83.800781 37.222656 83.511719 37.683594 L 83.511719 63.542969 C 83.511719 64.0625 83.410156 64.558594 83.222656 65.011719 C 83.613281 64.835938 83.96875 64.589844 84.265625 64.289062 C 84.886719 63.664062 85.273438 62.796875 85.273438 61.847656 Z M 32.464844 8.148438 L 85.675781 8.148438 L 85.675781 61.847656 C 85.675781 62.90625 85.246094 63.875 84.550781 64.574219 C 84.113281 65.019531 83.566406 65.355469 82.960938 65.542969 C 82.800781 65.808594 82.609375 66.050781 82.390625 66.269531 C 81.699219 66.96875 80.742188 67.40625 79.6875 67.40625 L 26.476562 67.40625 L 26.476562 13.707031 C 26.476562 12.644531 26.90625 11.679688 27.597656 10.980469 C 28.039062 10.535156 28.582031 10.199219 29.191406 10.011719 C 29.351562 9.746094 29.542969 9.503906 29.761719 9.28125 C 30.453125 8.582031 31.410156 8.148438 32.464844 8.148438 Z M 28.636719 35.234375 C 28.359375 35.738281 27.828125 36.082031 27.214844 36.082031 C 27.824219 36.082031 28.359375 36.425781 28.636719 36.929688 L 28.636719 65.710938 L 81.847656 65.710938 C 82.027344 65.710938 82.207031 65.699219 82.382812 65.671875 C 82.296875 65.78125 82.207031 65.886719 82.105469 65.984375 C 81.484375 66.613281 80.628906 67.003906 79.683594 67.003906 L 26.875 67.003906 L 26.875 13.707031 C 26.875 12.757812 27.261719 11.890625 27.882812 11.265625 C 28.179688 10.964844 28.535156 10.71875 28.925781 10.542969 C 28.738281 10.996094 28.636719 11.492188 28.636719 12.011719 Z M 29.035156 36.929688 C 29.3125 36.421875 29.84375 36.082031 30.457031 36.082031 C 29.84375 36.082031 29.3125 35.738281 29.035156 35.234375 L 29.035156 12.011719 C 29.035156 11.414062 29.1875 10.847656 29.457031 10.355469 C 29.726562 10.285156 30.011719 10.246094 30.304688 10.246094 L 83.117188 10.246094 L 83.117188 35.976562 C 82.855469 36.53125 82.296875 36.914062 81.652344 36.914062 C 82.296875 36.914062 82.855469 37.296875 83.117188 37.847656 L 83.117188 63.539062 C 83.117188 64.140625 82.960938 64.703125 82.695312 65.195312 C 82.425781 65.265625 82.140625 65.304688 81.847656 65.304688 L 29.035156 65.304688 Z M 29.035156 36.929688 " fill-opacity="1" fill-rule="evenodd"/></g><g clip-path="url(#a065a4b817)"><path fill="#ffffff" d="M 74.21875 56.226562 L 38.660156 56.226562 C 38.339844 56.226562 38.078125 55.964844 38.078125 55.644531 L 38.078125 52.320312 C 38.078125 46.796875 42.574219 42.300781 48.101562 42.300781 L 64.777344 42.300781 C 70.304688 42.300781 74.800781 46.796875 74.800781 52.320312 L 74.800781 55.644531 C 74.800781 55.964844 74.539062 56.226562 74.21875 56.226562 Z M 56.4375 40.730469 C 50.578125 40.730469 45.8125 35.964844 45.8125 30.105469 C 45.8125 24.246094 50.578125 19.476562 56.4375 19.476562 C 62.296875 19.476562 67.066406 24.246094 67.066406 30.105469 C 67.066406 35.964844 62.296875 40.730469 56.4375 40.730469 Z M 56.4375 40.730469 " fill-opacity="1" fill-rule="nonzero"/></g></svg>