<svg width="30" height="27" viewBox="0 0 30 27" fill="none" xmlns="http://www.w3.org/2000/svg">
<path d="M24.8234 5.96094H5.17723C4.21347 5.96094 3.28281 6.33439 2.5911 7.00811C1.89729 7.68388 1.5 8.60896 1.5 9.58215V20.9614C1.5 21.9344 1.89723 22.8594 2.59092 23.535C2.93404 23.8692 3.33926 24.1323 3.78245 24.3111C4.22558 24.4899 4.6992 24.5814 5.17662 24.5814H24.8228C25.7855 24.5814 26.7164 24.2093 27.4089 23.5349C28.1027 22.8591 28.5 21.934 28.5 20.9608V9.58095C28.5 8.60792 28.1028 7.68299 27.4091 7.00733C26.7167 6.33299 25.7859 5.96094 24.8234 5.96094Z" stroke="#FF8400" stroke-width="3" stroke-linecap="round" stroke-linejoin="round"/>
<path d="M14.5391 10.5061C14.5391 9.82314 13.9707 9.26953 13.2695 9.26953C12.5684 9.26953 12 9.82314 12 10.5061V10.5067C12 11.1896 12.5684 11.7432 13.2695 11.7432C13.9707 11.7432 14.5391 11.1896 14.5391 10.5067V10.5061Z" stroke="#FF8400" stroke-width="3" stroke-linecap="round" stroke-linejoin="round"/>
<path d="M12.4708 5.96311C12.4708 5.44267 12.576 4.92732 12.7805 4.44649C12.985 3.96567 13.2847 3.52878 13.6625 3.16077C14.0404 2.79276 14.4889 2.50084 14.9826 2.30167C15.4762 2.10251 16.0054 2 16.5397 2C17.074 2 17.6031 2.10251 18.0968 2.30167C18.5905 2.50084 19.039 2.79276 19.4169 3.16077C19.7947 3.52878 20.0944 3.96567 20.2989 4.44649C20.5034 4.92732 20.6086 5.44267 20.6086 5.96311M12.4708 5.96311V8.45055M20.6086 5.96311V8.30849M6.77046 6.31195C6.77011 5.58507 6.97501 4.87209 7.36275 4.25101C7.75049 3.62993 8.30613 3.12469 8.9689 2.79054C9.63166 2.45639 10.376 2.30621 11.1205 2.35643C11.865 2.40665 12.581 2.65534 13.1902 3.07529M6.77046 6.31195V8.26713M4.00062 11.7352C4.00062 11.5728 4.03345 11.412 4.09725 11.262C4.16105 11.1119 4.25457 10.9756 4.37245 10.8608C4.49034 10.746 4.6303 10.6549 4.78432 10.5928C4.93835 10.5306 5.10344 10.4986 5.27015 10.4986C5.43687 10.4986 5.60196 10.5306 5.75599 10.5928C5.91001 10.6549 6.04997 10.746 6.16785 10.8608C6.28574 10.9756 6.37925 11.1119 6.44305 11.262C6.50686 11.412 6.53969 11.5728 6.53969 11.7352M6.53908 20.6641C6.53908 20.8265 6.50624 20.9873 6.44244 21.1373C6.37864 21.2874 6.28513 21.4237 6.16724 21.5385C6.04935 21.6533 5.9094 21.7444 5.75537 21.8065C5.60134 21.8687 5.43626 21.9007 5.26954 21.9007C5.10282 21.9007 4.93773 21.8687 4.78371 21.8065C4.62968 21.7444 4.48973 21.6533 4.37184 21.5385C4.25395 21.4237 4.16044 21.2874 4.09664 21.1373C4.03284 20.9873 4 20.8265 4 20.6641M6.53908 20.6641V11.734M4.00062 11.7352V20.6647M20.7618 10.2433C21.0985 10.2433 21.4215 10.3736 21.6595 10.6055C21.8976 10.8374 22.0314 11.1519 22.0314 11.4798V11.4798C22.0315 11.6423 21.9987 11.8031 21.9349 11.9532C21.8712 12.1033 21.7777 12.2397 21.6598 12.3546C21.5419 12.4694 21.4019 12.5606 21.2478 12.6228C21.0938 12.6849 20.9286 12.7169 20.7618 12.7169V12.7169C20.5951 12.7169 20.4299 12.6849 20.2759 12.6228C20.1218 12.5606 19.9818 12.4694 19.8639 12.3546C19.746 12.2397 19.6525 12.1033 19.5888 11.9532C19.525 11.8031 19.4922 11.6423 19.4923 11.4798V11.4798C19.4923 11.1519 19.6261 10.8374 19.8641 10.6055C20.1022 10.3736 20.4251 10.2433 20.7618 10.2433Z" stroke="#FF8400" stroke-width="3" stroke-linecap="round" stroke-linejoin="round"/>
</svg>
