<svg width="25" height="20" viewBox="0 0 25 20" fill="none" xmlns="http://www.w3.org/2000/svg">
<path d="M17.6092 13.8112V17.9546H1.95658V1.38112H11.7395V0H1.95658C1.43766 0 0.939997 0.14551 0.573068 0.404521C0.206139 0.663531 0 1.01482 0 1.38112V17.9546C0 18.3209 0.206139 18.6722 0.573068 18.9312C0.939997 19.1902 1.43766 19.3357 1.95658 19.3357H17.6092C18.1281 19.3357 18.6258 19.1902 18.9927 18.9312C19.3596 18.6722 19.5658 18.3209 19.5658 17.9546V13.8112H17.6092Z" fill="#FF8400"/>
<path d="M24.2553 3.63695L21.0249 0.446144C20.7321 0.162681 20.3385 0.00390625 19.9285 0.00390625C19.5185 0.00390625 19.1249 0.162681 18.8321 0.446144L5.12744 13.9829V19.3396H10.5408L24.2455 5.80283C24.5325 5.51364 24.6932 5.12484 24.6932 4.71989C24.6932 4.31495 24.5325 3.92614 24.2455 3.63695H24.2553ZM9.7283 17.4058H7.08525V14.7951L16.3261 5.6578L18.979 8.27813L9.7283 17.4058ZM20.3592 6.91478L17.7064 4.29445L19.9285 2.09956L22.5813 4.71989L20.3592 6.91478Z" fill="#FF8400"/>
</svg>
