<svg xmlns="http://www.w3.org/2000/svg" xmlns:xlink="http://www.w3.org/1999/xlink" width="250" zoomAndPan="magnify" viewBox="0 0 187.5 187.499992" height="250" preserveAspectRatio="xMidYMid meet" version="1.0"><defs><clipPath id="8cf560b4ed"><path d="M 0 0 L 187 0 L 187 187 L 0 187 Z M 0 0 " clip-rule="nonzero"/></clipPath><clipPath id="80b6be1653"><path d="M 23.335938 23.976562 L 164.335938 23.976562 L 164.335938 163.476562 L 23.335938 163.476562 Z M 23.335938 23.976562 " clip-rule="nonzero"/></clipPath><clipPath id="276c0a6955"><path d="M 49.839844 51.433594 L 137.589844 51.433594 L 137.589844 136.183594 L 49.839844 136.183594 Z M 49.839844 51.433594 " clip-rule="nonzero"/></clipPath></defs><g clip-path="url(#8cf560b4ed)"><path fill="#ffffff" d="M 0 0 L 187.5 0 L 187.5 187.5 L 0 187.5 Z M 0 0 " fill-opacity="1" fill-rule="nonzero"/><path fill="#ff8400" d="M 0 0 L 187.5 0 L 187.5 187.5 L 0 187.5 Z M 0 0 " fill-opacity="1" fill-rule="nonzero"/></g><g clip-path="url(#80b6be1653)"><path fill="#ffffff" d="M 163.300781 24.941406 L 37.636719 24.941406 C 35.394531 24.941406 33.351562 25.855469 31.875 27.335938 C 31.644531 27.566406 31.425781 27.8125 31.21875 28.070312 C 31.632812 28.015625 32.0625 27.984375 32.492188 27.984375 L 159.109375 27.984375 L 159.109375 89.90625 C 159.789062 90.996094 161 91.71875 162.382812 91.71875 C 161 91.71875 159.792969 92.441406 159.109375 93.53125 L 159.109375 154.40625 C 159.109375 155.632812 158.863281 156.800781 158.417969 157.867188 C 159.347656 157.457031 160.191406 156.878906 160.902344 156.167969 C 162.382812 154.695312 163.296875 152.652344 163.296875 150.414062 L 163.296875 24.941406 Z M 37.640625 23.992188 L 164.253906 23.992188 L 164.253906 150.414062 C 164.253906 152.917969 163.230469 155.195312 161.582031 156.839844 C 160.535156 157.886719 159.238281 158.675781 157.792969 159.117188 C 157.414062 159.742188 156.957031 160.316406 156.441406 160.832031 C 154.792969 162.480469 152.515625 163.503906 150.007812 163.503906 L 23.386719 163.503906 L 23.386719 37.078125 C 23.386719 34.578125 24.410156 32.300781 26.0625 30.652344 C 27.109375 29.609375 28.40625 28.816406 29.855469 28.375 C 30.234375 27.75 30.691406 27.179688 31.203125 26.660156 C 32.855469 25.011719 35.132812 23.992188 37.640625 23.992188 Z M 28.53125 87.761719 C 27.871094 88.949219 26.605469 89.757812 25.148438 89.757812 C 26.601562 89.757812 27.871094 90.566406 28.53125 91.753906 L 28.53125 159.515625 L 155.144531 159.515625 C 155.578125 159.515625 156.003906 159.484375 156.417969 159.425781 C 156.214844 159.6875 156 159.929688 155.761719 160.164062 C 154.28125 161.640625 152.242188 162.558594 150.003906 162.558594 L 24.339844 162.558594 L 24.339844 37.078125 C 24.339844 34.839844 25.257812 32.800781 26.738281 31.328125 C 27.449219 30.617188 28.289062 30.035156 29.21875 29.625 C 28.777344 30.691406 28.53125 31.863281 28.53125 33.085938 Z M 29.484375 91.75 C 30.140625 90.5625 31.40625 89.753906 32.859375 89.753906 C 31.40625 89.753906 30.136719 88.949219 29.484375 87.757812 L 29.484375 33.085938 C 29.484375 31.675781 29.84375 30.34375 30.484375 29.183594 C 31.128906 29.019531 31.804688 28.929688 32.496094 28.929688 L 158.164062 28.929688 L 158.164062 89.511719 C 157.546875 90.8125 156.21875 91.714844 154.679688 91.714844 C 156.21875 91.714844 157.546875 92.613281 158.164062 93.914062 L 158.164062 154.402344 C 158.164062 155.8125 157.796875 157.144531 157.164062 158.304688 C 156.519531 158.472656 155.84375 158.5625 155.148438 158.5625 L 29.484375 158.5625 Z M 29.484375 91.75 " fill-opacity="1" fill-rule="evenodd"/></g><g clip-path="url(#276c0a6955)"><path fill="#ffffff" d="M 95.859375 129.894531 C 95.859375 128.71875 95.859375 127.539062 95.859375 126.363281 C 95.859375 124.464844 96.84375 123.457031 98.734375 123.433594 C 99.417969 123.425781 100.105469 123.433594 100.871094 123.433594 L 100.871094 120.183594 C 100.871094 117.988281 101.828125 117.035156 104.035156 117.035156 C 105.808594 117.035156 107.585938 117.035156 109.359375 117.035156 C 109.570312 117.035156 109.785156 117.003906 110.140625 116.980469 C 109.808594 116.734375 109.613281 116.589844 109.410156 116.449219 C 107.539062 115.148438 105.9375 113.570312 104.613281 111.710938 C 103.289062 109.851562 102.316406 107.824219 101.699219 105.628906 C 101.683594 105.5 101.644531 105.382812 101.582031 105.273438 C 101.519531 105.160156 101.4375 105.070312 101.332031 104.992188 C 101.230469 104.917969 101.117188 104.867188 100.992188 104.835938 C 100.871094 104.808594 100.746094 104.808594 100.621094 104.832031 C 86.203125 104.847656 71.78125 104.855469 57.363281 104.84375 C 57.019531 104.851562 56.675781 104.835938 56.332031 104.800781 C 56.15625 104.78125 55.992188 104.726562 55.839844 104.644531 C 55.6875 104.5625 55.550781 104.457031 55.4375 104.324219 C 55.320312 104.195312 55.234375 104.046875 55.171875 103.882812 C 55.113281 103.71875 55.082031 103.550781 55.082031 103.375 C 55.078125 103.195312 55.105469 103.019531 55.164062 102.847656 C 55.222656 102.679688 55.3125 102.523438 55.425781 102.386719 C 55.542969 102.25 55.679688 102.136719 55.839844 102.046875 C 55.996094 101.960938 56.164062 101.90625 56.339844 101.878906 C 56.640625 101.851562 56.9375 101.84375 57.238281 101.855469 L 100.78125 101.855469 C 100.941406 99.625 101.097656 97.480469 101.261719 95.265625 L 57.28125 95.265625 C 56.980469 95.273438 56.683594 95.265625 56.382812 95.242188 C 56.207031 95.222656 56.035156 95.171875 55.875 95.089844 C 55.714844 95.011719 55.578125 94.902344 55.457031 94.769531 C 55.335938 94.632812 55.246094 94.484375 55.179688 94.3125 C 55.117188 94.144531 55.085938 93.972656 55.085938 93.792969 C 55.078125 92.855469 55.71875 92.289062 56.835938 92.285156 C 61.949219 92.28125 67.0625 92.28125 72.179688 92.285156 C 82.015625 92.285156 91.847656 92.289062 101.683594 92.296875 C 101.910156 92.316406 102.117188 92.265625 102.308594 92.144531 C 102.5 92.023438 102.632812 91.859375 102.714844 91.648438 C 103.566406 90.148438 104.511719 88.703125 105.460938 87.269531 C 105.878906 86.71875 106.324219 86.191406 106.800781 85.691406 L 57.21875 85.691406 C 56.921875 85.703125 56.625 85.695312 56.328125 85.664062 C 56.148438 85.636719 55.980469 85.578125 55.824219 85.488281 C 55.667969 85.398438 55.535156 85.285156 55.421875 85.144531 C 55.304688 85.003906 55.21875 84.851562 55.164062 84.679688 C 55.105469 84.507812 55.078125 84.332031 55.085938 84.152344 C 55.085938 83.976562 55.117188 83.808594 55.183594 83.644531 C 55.246094 83.484375 55.335938 83.335938 55.449219 83.207031 C 55.566406 83.078125 55.703125 82.972656 55.859375 82.890625 C 56.011719 82.8125 56.175781 82.761719 56.351562 82.742188 C 56.691406 82.707031 57.039062 82.691406 57.382812 82.699219 C 74.636719 82.699219 91.886719 82.703125 109.136719 82.710938 C 110.128906 82.707031 111.074219 82.496094 111.96875 82.078125 C 113.746094 81.296875 115.609375 80.707031 117.519531 80.007812 L 117.519531 73.6875 L 116.605469 73.6875 C 110.5 73.6875 104.394531 73.691406 98.292969 73.695312 C 96.730469 73.695312 96.261719 73.230469 96.261719 71.691406 C 96.261719 65.230469 96.261719 58.765625 96.261719 52.300781 L 96.261719 51.460938 L 49.839844 51.460938 L 49.839844 136.152344 L 99.1875 136.152344 L 99.1875 132.824219 C 98.957031 132.808594 98.824219 132.796875 98.6875 132.792969 C 96.824219 132.742188 95.859375 131.75 95.859375 129.894531 Z M 54.097656 64.167969 C 54 63.804688 54.03125 63.457031 54.195312 63.117188 C 54.355469 62.78125 54.609375 62.535156 54.953125 62.386719 C 57.875 60.546875 60.796875 58.71875 63.71875 56.878906 C 64.019531 56.664062 64.351562 56.558594 64.71875 56.5625 C 65.089844 56.5625 65.421875 56.671875 65.71875 56.890625 C 68.617188 58.71875 71.527344 60.535156 74.429688 62.363281 C 75.277344 62.898438 75.527344 63.441406 75.304688 64.1875 C 75.085938 64.933594 74.558594 65.269531 73.601562 65.296875 C 73.261719 65.304688 72.917969 65.296875 72.472656 65.296875 L 72.472656 72.300781 C 72.472656 72.667969 72.472656 73.039062 72.472656 73.40625 C 72.464844 74.628906 71.929688 75.1875 70.703125 75.191406 C 67.066406 75.199219 63.429688 75.195312 59.792969 75.195312 C 59.378906 75.195312 58.964844 75.207031 58.550781 75.1875 C 58.328125 75.207031 58.113281 75.179688 57.902344 75.097656 C 57.695312 75.019531 57.511719 74.902344 57.355469 74.738281 C 57.199219 74.578125 57.085938 74.390625 57.015625 74.179688 C 56.945312 73.964844 56.921875 73.75 56.949219 73.527344 C 56.9375 71.082031 56.945312 68.636719 56.945312 66.191406 L 56.945312 65.296875 C 56.488281 65.296875 56.105469 65.308594 55.722656 65.296875 C 55.351562 65.324219 55.011719 65.234375 54.707031 65.023438 C 54.402344 64.8125 54.199219 64.527344 54.097656 64.167969 Z M 93.9375 122.566406 C 93.925781 122.886719 93.820312 123.175781 93.617188 123.421875 C 93.414062 123.671875 93.15625 123.835938 92.84375 123.910156 C 92.527344 123.976562 92.207031 124.011719 91.886719 124.007812 C 80.300781 124.011719 68.714844 124.011719 57.128906 124.011719 C 57.011719 124.011719 56.898438 124.011719 56.78125 124.011719 C 55.710938 123.960938 55.085938 123.402344 55.082031 122.5 C 55.082031 121.570312 55.730469 120.996094 56.851562 120.992188 C 62.75 120.988281 68.648438 120.988281 74.542969 120.992188 C 80.324219 120.992188 86.105469 120.996094 91.886719 121 C 92.253906 120.992188 92.617188 121.035156 92.972656 121.128906 C 93.277344 121.230469 93.519531 121.417969 93.699219 121.683594 C 93.878906 121.953125 93.957031 122.246094 93.9375 122.566406 Z M 93.9375 113.0625 C 93.90625 113.394531 93.777344 113.679688 93.550781 113.925781 C 93.320312 114.167969 93.042969 114.3125 92.710938 114.363281 C 92.417969 114.40625 92.117188 114.429688 91.820312 114.425781 C 80.28125 114.425781 68.738281 114.425781 57.199219 114.425781 C 56.921875 114.429688 56.648438 114.410156 56.375 114.375 C 56.1875 114.359375 56.011719 114.304688 55.847656 114.21875 C 55.683594 114.132812 55.539062 114.019531 55.417969 113.875 C 55.300781 113.734375 55.210938 113.574219 55.152344 113.394531 C 55.09375 113.21875 55.074219 113.035156 55.085938 112.847656 C 55.09375 112.667969 55.132812 112.496094 55.203125 112.332031 C 55.273438 112.164062 55.371094 112.015625 55.496094 111.886719 C 55.621094 111.757812 55.765625 111.652344 55.929688 111.574219 C 56.089844 111.496094 56.261719 111.449219 56.441406 111.433594 C 56.667969 111.417969 56.898438 111.417969 57.128906 111.425781 L 74.542969 111.425781 C 80.347656 111.425781 86.152344 111.425781 91.957031 111.425781 C 92.277344 111.414062 92.597656 111.445312 92.910156 111.519531 C 93.242188 111.621094 93.507812 111.816406 93.699219 112.105469 C 93.890625 112.398438 93.972656 112.714844 93.9375 113.0625 Z M 103.886719 99.992188 C 103.890625 100.546875 103.917969 101.097656 103.976562 101.644531 C 104.035156 102.195312 104.117188 102.742188 104.230469 103.28125 C 104.339844 103.824219 104.476562 104.359375 104.640625 104.886719 C 104.804688 105.414062 104.992188 105.933594 105.207031 106.441406 C 105.421875 106.953125 105.660156 107.449219 105.921875 107.933594 C 106.183594 108.421875 106.46875 108.894531 106.78125 109.351562 C 107.089844 109.808594 107.417969 110.25 107.769531 110.675781 C 108.125 111.101562 108.496094 111.507812 108.886719 111.898438 C 109.28125 112.285156 109.691406 112.652344 110.117188 113.003906 C 110.546875 113.351562 110.988281 113.675781 111.449219 113.980469 C 111.910156 114.285156 112.382812 114.566406 112.871094 114.824219 C 113.359375 115.082031 113.859375 115.316406 114.367188 115.527344 C 114.878906 115.734375 115.398438 115.917969 115.925781 116.078125 C 116.457031 116.234375 116.988281 116.367188 117.53125 116.472656 C 118.074219 116.578125 118.617188 116.65625 119.167969 116.707031 C 119.714844 116.757812 120.265625 116.785156 120.816406 116.78125 C 121.367188 116.777344 121.917969 116.75 122.46875 116.691406 C 123.015625 116.636719 123.558594 116.550781 124.101562 116.441406 C 124.640625 116.332031 125.175781 116.195312 125.703125 116.035156 C 126.230469 115.871094 126.746094 115.683594 127.253906 115.46875 C 127.765625 115.253906 128.261719 115.019531 128.746094 114.753906 C 129.230469 114.492188 129.703125 114.207031 130.160156 113.898438 C 130.617188 113.589844 131.058594 113.257812 131.484375 112.90625 C 131.910156 112.554688 132.316406 112.183594 132.703125 111.789062 C 133.09375 111.398438 133.460938 110.988281 133.808594 110.558594 C 134.15625 110.132812 134.484375 109.6875 134.789062 109.226562 C 135.09375 108.765625 135.375 108.292969 135.632812 107.804688 C 135.894531 107.316406 136.125 106.816406 136.335938 106.304688 C 136.546875 105.792969 136.730469 105.273438 136.886719 104.742188 C 137.046875 104.214844 137.179688 103.679688 137.285156 103.136719 C 137.390625 102.59375 137.472656 102.046875 137.523438 101.496094 C 137.574219 100.945312 137.601562 100.394531 137.601562 99.84375 C 137.597656 99.289062 137.570312 98.738281 137.515625 98.1875 C 137.460938 97.640625 137.378906 97.09375 137.269531 96.550781 C 137.160156 96.007812 137.027344 95.472656 136.863281 94.945312 C 136.703125 94.417969 136.515625 93.898438 136.304688 93.386719 C 136.09375 92.878906 135.855469 92.378906 135.59375 91.890625 C 135.335938 91.40625 135.050781 90.933594 134.742188 90.472656 C 134.4375 90.015625 134.109375 89.570312 133.757812 89.144531 C 133.40625 88.71875 133.035156 88.308594 132.644531 87.917969 C 132.253906 87.527344 131.847656 87.160156 131.421875 86.808594 C 130.992188 86.457031 130.550781 86.128906 130.089844 85.824219 C 129.632812 85.515625 129.160156 85.234375 128.671875 84.972656 C 128.1875 84.714844 127.6875 84.476562 127.179688 84.265625 C 126.667969 84.054688 126.152344 83.871094 125.621094 83.710938 C 125.09375 83.550781 124.5625 83.417969 124.019531 83.308594 C 123.480469 83.203125 122.933594 83.121094 122.386719 83.066406 C 121.835938 83.015625 121.285156 82.988281 120.734375 82.988281 C 120.179688 82.988281 119.628906 83.015625 119.078125 83.074219 C 118.527344 83.128906 117.980469 83.210938 117.4375 83.320312 C 116.894531 83.429688 116.355469 83.566406 115.828125 83.730469 C 115.296875 83.890625 114.777344 84.078125 114.265625 84.292969 C 113.753906 84.507812 113.253906 84.746094 112.765625 85.007812 C 112.28125 85.273438 111.804688 85.558594 111.347656 85.867188 C 110.886719 86.179688 110.441406 86.511719 110.015625 86.863281 C 109.589844 87.21875 109.179688 87.589844 108.789062 87.984375 C 108.398438 88.378906 108.03125 88.792969 107.679688 89.222656 C 107.328125 89.652344 107 90.097656 106.695312 90.5625 C 106.390625 91.023438 106.105469 91.5 105.847656 91.992188 C 105.589844 92.484375 105.355469 92.984375 105.144531 93.5 C 104.933594 94.011719 104.75 94.535156 104.589844 95.066406 C 104.433594 95.601562 104.300781 96.136719 104.195312 96.683594 C 104.089844 97.230469 104.011719 97.777344 103.960938 98.332031 C 103.90625 98.882812 103.882812 99.4375 103.886719 99.992188 Z M 112.300781 100 C 112.464844 99.890625 112.644531 99.8125 112.835938 99.773438 C 113.027344 99.734375 113.222656 99.730469 113.417969 99.765625 C 113.609375 99.796875 113.792969 99.867188 113.957031 99.972656 C 114.125 100.078125 114.265625 100.210938 114.382812 100.371094 C 115.152344 101.40625 115.886719 102.464844 116.691406 103.59375 C 116.925781 103.371094 117.113281 103.203125 117.289062 103.023438 C 120.558594 99.742188 123.828125 96.460938 127.097656 93.175781 C 127.289062 92.9375 127.53125 92.769531 127.824219 92.675781 C 128.117188 92.578125 128.410156 92.566406 128.707031 92.644531 C 128.984375 92.714844 129.21875 92.851562 129.414062 93.0625 C 129.605469 93.269531 129.730469 93.515625 129.777344 93.796875 C 129.828125 94.097656 129.792969 94.390625 129.679688 94.675781 C 129.5625 94.960938 129.382812 95.195312 129.132812 95.375 C 125.359375 99.160156 121.585938 102.949219 117.808594 106.734375 C 117.730469 106.816406 117.648438 106.898438 117.566406 106.980469 C 117.414062 107.136719 117.238281 107.253906 117.035156 107.328125 C 116.832031 107.40625 116.621094 107.433594 116.40625 107.417969 C 116.1875 107.402344 115.984375 107.335938 115.796875 107.230469 C 115.609375 107.121094 115.449219 106.980469 115.324219 106.800781 C 114.175781 105.246094 113.046875 103.671875 111.949219 102.074219 C 111.828125 101.917969 111.746094 101.742188 111.699219 101.546875 C 111.648438 101.355469 111.640625 101.160156 111.675781 100.960938 C 111.710938 100.765625 111.78125 100.582031 111.890625 100.414062 C 111.996094 100.25 112.136719 100.109375 112.300781 100 Z M 115.492188 70.640625 L 99.292969 70.640625 L 99.292969 53.683594 Z M 103.929688 120.085938 L 137.582031 120.085938 L 137.582031 123.367188 L 103.929688 123.367188 Z M 98.886719 126.457031 L 132.527344 126.457031 L 132.527344 129.75 L 98.855469 129.75 C 98.855469 128.871094 98.855469 128.019531 98.855469 127.171875 C 98.859375 126.945312 98.875 126.722656 98.886719 126.457031 Z M 135.917969 132.847656 C 135.917969 133.871094 135.917969 134.816406 135.917969 135.761719 C 135.917969 135.871094 135.894531 135.984375 135.875 136.144531 L 102.242188 136.144531 L 102.242188 132.847656 Z M 69.421875 72.179688 L 60.003906 72.179688 L 60.003906 65.339844 L 69.421875 65.339844 Z M 61.0625 62.246094 L 61.007812 62.136719 C 62.179688 61.398438 63.351562 60.65625 64.535156 59.933594 C 64.683594 59.878906 64.828125 59.894531 64.96875 59.976562 C 66.117188 60.683594 67.257812 61.40625 68.402344 62.125 L 68.355469 62.246094 Z M 61.0625 62.246094 " fill-opacity="1" fill-rule="nonzero"/></g></svg>