<svg width="30" height="27" viewBox="0 0 30 27" fill="none" xmlns="http://www.w3.org/2000/svg">
<path d="M24.8234 6.10938H5.17723C4.20088 6.10938 3.26588 6.49818 2.57704 7.18703C1.88742 7.87664 1.5 8.81196 1.5 9.78722V21.4703C1.5 22.4454 1.88736 23.3806 2.57686 24.0701C2.91826 24.4115 3.32356 24.6823 3.76964 24.867C4.2157 25.0518 4.6938 25.1469 5.17662 25.1469H24.8228C25.798 25.1469 26.7334 24.7595 27.423 24.0699C28.1126 23.3803 28.5 22.4449 28.5 21.4697V9.78599C28.5 8.81089 28.1126 7.87573 27.4231 7.18623C26.7336 6.49673 25.7985 6.10938 24.8234 6.10938Z" stroke="#FF8400" stroke-width="3" stroke-linecap="round" stroke-linejoin="round"/>
<path d="M14.5391 10.7334C14.5391 10.0323 13.9707 9.46387 13.2695 9.46387C12.5684 9.46387 12 10.0323 12 10.7334V10.734C12 11.4352 12.5684 12.0036 13.2695 12.0036C13.9707 12.0036 14.5391 11.4352 14.5391 10.734V10.7334Z" stroke="#FF8400" stroke-width="3" stroke-linecap="round" stroke-linejoin="round"/>
<path d="M12.4708 6.06892C12.4708 5.53458 12.576 5.00548 12.7805 4.51181C12.985 4.01815 13.2847 3.56959 13.6625 3.19176C14.0404 2.81393 14.4889 2.51421 14.9826 2.30973C15.4762 2.10525 16.0054 2 16.5397 2C17.074 2 17.6031 2.10525 18.0968 2.30973C18.5905 2.51421 19.039 2.81393 19.4169 3.19176C19.7947 3.56959 20.0944 4.01815 20.2989 4.51181C20.5034 5.00548 20.6086 5.53458 20.6086 6.06892M12.4708 6.06892V8.62277M20.6086 6.06892V8.47692M6.77046 6.42708C6.77011 5.68078 6.97501 4.94877 7.36275 4.31111C7.75049 3.67345 8.30613 3.15471 8.9689 2.81164C9.63166 2.46857 10.376 2.31438 11.1205 2.36595C11.865 2.41751 12.581 2.67284 13.1902 3.104M6.77046 6.42708V8.43446M4.00062 11.9951C4.00062 11.8284 4.03345 11.6633 4.09725 11.5092C4.16105 11.3552 4.25457 11.2153 4.37245 11.0974C4.49034 10.9795 4.6303 10.886 4.78432 10.8222C4.93835 10.7584 5.10344 10.7255 5.27015 10.7255C5.43687 10.7255 5.60196 10.7584 5.75599 10.8222C5.91001 10.886 6.04997 10.9795 6.16785 11.0974C6.28574 11.2153 6.37925 11.3552 6.44305 11.5092C6.50686 11.6633 6.53969 11.8284 6.53969 11.9951M6.53908 21.1625C6.53908 21.3292 6.50624 21.4943 6.44244 21.6483C6.37864 21.8023 6.28513 21.9423 6.16724 22.0602C6.04935 22.178 5.9094 22.2716 5.75537 22.3354C5.60134 22.3992 5.43626 22.432 5.26954 22.432C5.10282 22.432 4.93773 22.3992 4.78371 22.3354C4.62968 22.2716 4.48973 22.178 4.37184 22.0602C4.25395 21.9423 4.16044 21.8023 4.09664 21.6483C4.03284 21.4943 4 21.3292 4 21.1625M6.53908 21.1625V11.9938M4.00062 11.9951V21.1631M20.7618 10.4634C21.0985 10.4634 21.4215 10.5971 21.6595 10.8352C21.8976 11.0733 22.0314 11.3962 22.0314 11.7329V11.7329C22.0315 11.8997 21.9987 12.0648 21.9349 12.2189C21.8712 12.373 21.7777 12.5131 21.6598 12.631C21.5419 12.749 21.4019 12.8425 21.2478 12.9064C21.0938 12.9702 20.9286 13.0031 20.7618 13.0031V13.0031C20.5951 13.0031 20.4299 12.9702 20.2759 12.9064C20.1218 12.8425 19.9818 12.749 19.8639 12.631C19.746 12.5131 19.6525 12.373 19.5888 12.2189C19.525 12.0648 19.4922 11.8997 19.4923 11.7329V11.7329C19.4923 11.3962 19.6261 11.0733 19.8641 10.8352C20.1022 10.5971 20.4251 10.4634 20.7618 10.4634Z" stroke="#FF8400" stroke-width="3" stroke-linecap="round" stroke-linejoin="round"/>
</svg>
