<svg width="24" height="24" viewBox="0 0 24 24" fill="none" xmlns="http://www.w3.org/2000/svg">
<path d="M10.1281 0.613281L8.69418 4.026C8.4074 4.11203 8.14929 4.25543 7.89119 4.39882L4.47847 2.9649L2.41363 5.02974L3.84755 8.44246C3.70416 8.72924 3.58944 8.95867 3.47473 9.24545L0.0620117 10.6794V13.5472L3.47473 14.9811C3.58944 15.2679 3.70416 15.4973 3.84755 15.7841L2.41363 19.1968L4.47847 21.2617L7.89119 19.8277C8.14929 19.9425 8.4074 20.0858 8.69418 20.2006L10.1281 23.6133H12.9959L14.4298 20.2006C14.6879 20.0858 14.9747 19.9711 15.2328 19.8277L18.6456 21.2617L20.7104 19.1968L19.2765 15.7841C19.3912 15.526 19.5346 15.2392 19.6493 14.9811L23.062 13.5472V10.6794L19.6493 9.24545C19.5633 8.98735 19.4199 8.70056 19.2765 8.44246L20.7104 5.02974L18.6456 2.9649L15.2328 4.39882C14.9747 4.2841 14.6879 4.14071 14.4298 4.026L12.9959 0.613281L10.1281 0.613281ZM11.562 7.78286C13.9423 7.78286 15.8638 9.7043 15.8638 12.0846C15.8638 14.4649 13.9423 16.3863 11.562 16.3863C9.18171 16.3863 7.26027 14.4649 7.26027 12.0846C7.26027 9.7043 9.18171 7.78286 11.562 7.78286Z" fill="#FF8400"/>
</svg>
