<svg xmlns="http://www.w3.org/2000/svg" xmlns:xlink="http://www.w3.org/1999/xlink" width="250" zoomAndPan="magnify" viewBox="0 0 187.5 187.499992" height="250" preserveAspectRatio="xMidYMid meet" version="1.0"><defs><clipPath id="53d4437006"><path d="M 0 0 L 187 0 L 187 187 L 0 187 Z M 0 0 " clip-rule="nonzero"/></clipPath><clipPath id="c5cb3755ba"><path d="M 23.335938 23.976562 L 164.335938 23.976562 L 164.335938 163.476562 L 23.335938 163.476562 Z M 23.335938 23.976562 " clip-rule="nonzero"/></clipPath><clipPath id="e0b76963d8"><path d="M 50.410156 50.410156 L 137.410156 50.410156 L 137.410156 137.410156 L 50.410156 137.410156 Z M 50.410156 50.410156 " clip-rule="nonzero"/></clipPath></defs><g clip-path="url(#53d4437006)"><path fill="#ffffff" d="M 0 0 L 187.5 0 L 187.5 187.5 L 0 187.5 Z M 0 0 " fill-opacity="1" fill-rule="nonzero"/><path fill="#ff8400" d="M 0 0 L 187.5 0 L 187.5 187.5 L 0 187.5 Z M 0 0 " fill-opacity="1" fill-rule="nonzero"/></g><g clip-path="url(#c5cb3755ba)"><path fill="#ffffff" d="M 163.300781 24.941406 L 37.636719 24.941406 C 35.394531 24.941406 33.351562 25.855469 31.875 27.335938 C 31.644531 27.566406 31.425781 27.8125 31.21875 28.070312 C 31.632812 28.015625 32.0625 27.984375 32.492188 27.984375 L 159.109375 27.984375 L 159.109375 89.90625 C 159.789062 90.996094 161 91.71875 162.382812 91.71875 C 161 91.71875 159.792969 92.441406 159.109375 93.53125 L 159.109375 154.40625 C 159.109375 155.632812 158.863281 156.800781 158.417969 157.867188 C 159.347656 157.457031 160.191406 156.878906 160.902344 156.167969 C 162.382812 154.695312 163.296875 152.652344 163.296875 150.414062 L 163.296875 24.941406 Z M 37.640625 23.992188 L 164.253906 23.992188 L 164.253906 150.414062 C 164.253906 152.917969 163.230469 155.195312 161.582031 156.839844 C 160.535156 157.886719 159.238281 158.675781 157.792969 159.117188 C 157.414062 159.742188 156.957031 160.316406 156.441406 160.832031 C 154.792969 162.480469 152.515625 163.503906 150.007812 163.503906 L 23.386719 163.503906 L 23.386719 37.078125 C 23.386719 34.578125 24.410156 32.300781 26.0625 30.652344 C 27.109375 29.609375 28.40625 28.816406 29.855469 28.375 C 30.234375 27.75 30.691406 27.179688 31.203125 26.660156 C 32.855469 25.011719 35.132812 23.992188 37.640625 23.992188 Z M 28.53125 87.761719 C 27.871094 88.949219 26.605469 89.757812 25.148438 89.757812 C 26.601562 89.757812 27.871094 90.566406 28.53125 91.753906 L 28.53125 159.515625 L 155.144531 159.515625 C 155.578125 159.515625 156.003906 159.484375 156.417969 159.425781 C 156.214844 159.6875 156 159.929688 155.761719 160.164062 C 154.28125 161.640625 152.242188 162.558594 150.003906 162.558594 L 24.339844 162.558594 L 24.339844 37.078125 C 24.339844 34.839844 25.257812 32.800781 26.738281 31.328125 C 27.449219 30.617188 28.289062 30.035156 29.21875 29.625 C 28.777344 30.691406 28.53125 31.863281 28.53125 33.085938 Z M 29.484375 91.75 C 30.140625 90.5625 31.40625 89.753906 32.859375 89.753906 C 31.40625 89.753906 30.136719 88.949219 29.484375 87.757812 L 29.484375 33.085938 C 29.484375 31.675781 29.84375 30.34375 30.484375 29.183594 C 31.128906 29.019531 31.804688 28.929688 32.496094 28.929688 L 158.164062 28.929688 L 158.164062 89.511719 C 157.546875 90.8125 156.21875 91.714844 154.679688 91.714844 C 156.21875 91.714844 157.546875 92.613281 158.164062 93.914062 L 158.164062 154.402344 C 158.164062 155.8125 157.796875 157.144531 157.164062 158.304688 C 156.519531 158.472656 155.84375 158.5625 155.148438 158.5625 L 29.484375 158.5625 Z M 29.484375 91.75 " fill-opacity="1" fill-rule="evenodd"/></g><g clip-path="url(#e0b76963d8)"><path fill="#ffffff" d="M 136 137.402344 L 51.824219 137.402344 C 51.0625 137.402344 50.445312 136.785156 50.445312 136.023438 L 50.445312 128.160156 C 50.445312 115.078125 61.089844 104.433594 74.171875 104.433594 L 113.652344 104.433594 C 126.738281 104.433594 137.378906 115.078125 137.378906 128.160156 L 137.378906 136.023438 C 137.378906 136.785156 136.761719 137.402344 136 137.402344 Z M 93.914062 100.726562 C 80.042969 100.726562 68.753906 89.4375 68.753906 75.566406 C 68.753906 61.695312 80.042969 50.410156 93.914062 50.410156 C 107.785156 50.410156 119.070312 61.695312 119.070312 75.566406 C 119.070312 89.4375 107.785156 100.726562 93.914062 100.726562 Z M 93.914062 100.726562 " fill-opacity="1" fill-rule="nonzero"/></g></svg>