<svg width="23" height="23" viewBox="0 0 23 23" fill="none" xmlns="http://www.w3.org/2000/svg">
<path d="M16.1 13.6562C14.6266 13.6562 13.9181 14.375 11.5 14.375C9.08192 14.375 8.37857 13.6562 6.9 13.6562C3.09062 13.6562 0 16.3605 0 19.6937V20.8438C0 22.0342 1.10379 23 2.46429 23H20.5357C21.8962 23 23 22.0342 23 20.8438V19.6937C23 16.3605 19.9094 13.6562 16.1 13.6562ZM20.5357 20.8438H2.46429V19.6937C2.46429 17.5555 4.45625 15.8125 6.9 15.8125C7.64955 15.8125 8.86629 16.5312 11.5 16.5312C14.1542 16.5312 15.3453 15.8125 16.1 15.8125C18.5438 15.8125 20.5357 17.5555 20.5357 19.6937V20.8438ZM11.5 12.9375C15.5815 12.9375 18.8929 10.04 18.8929 6.46875C18.8929 2.89746 15.5815 0 11.5 0C7.41853 0 4.10714 2.89746 4.10714 6.46875C4.10714 10.04 7.41853 12.9375 11.5 12.9375ZM11.5 2.15625C14.2158 2.15625 16.4286 4.09238 16.4286 6.46875C16.4286 8.84512 14.2158 10.7812 11.5 10.7812C8.78415 10.7812 6.57143 8.84512 6.57143 6.46875C6.57143 4.09238 8.78415 2.15625 11.5 2.15625Z" fill="#FF8400"/>
</svg>
